<?xml version="1.0" encoding="UTF-8"?>
<svg xmlns="http://www.w3.org/2000/svg" xmlns:xlink="http://www.w3.org/1999/xlink" viewBox="0 0 1303 1122.56">
  <defs>
    <style>
      .cls-1 {
        fill: url(#linear-gradient-2);
      }

      .cls-2 {
        fill: url(#linear-gradient-15);
      }

      .cls-3 {
        fill: #21673c;
      }

      .cls-4 {
        fill: url(#linear-gradient-14);
      }

      .cls-5 {
        fill: url(#linear-gradient-6);
      }

      .cls-6 {
        clip-path: url(#clippath-2);
      }

      .cls-7 {
        isolation: isolate;
      }

      .cls-8 {
        fill: url(#linear-gradient-11);
      }

      .cls-9 {
        clip-path: url(#clippath-1);
      }

      .cls-10 {
        fill: url(#linear-gradient-10);
      }

      .cls-11, .cls-12 {
        fill: #4f4432;
      }

      .cls-13 {
        fill: url(#linear-gradient-16);
      }

      .cls-14 {
        fill: url(#linear-gradient-5);
      }

      .cls-15 {
        clip-path: url(#clippath);
      }

      .cls-16 {
        fill: #64b900;
      }

      .cls-17 {
        fill: none;
      }

      .cls-18 {
        fill: url(#linear-gradient-7);
      }

      .cls-12 {
        mix-blend-mode: multiply;
      }

      .cls-19 {
        fill: #872c3d;
        font-family: MonotypeCorsiva-Bold, 'Monotype Corsiva';
        font-size: 215px;
        font-weight: 700;
      }

      .cls-20 {
        fill: url(#linear-gradient-9);
      }

      .cls-21 {
        fill: url(#linear-gradient-3);
      }

      .cls-22 {
        fill: url(#linear-gradient);
      }

      .cls-23 {
        fill: url(#linear-gradient-4);
      }

      .cls-24 {
        fill: url(#linear-gradient-8);
      }

      .cls-25 {
        fill: url(#linear-gradient-12);
      }

      .cls-26 {
        fill: url(#linear-gradient-13);
      }

      .cls-27 {
        fill: #e9f1ff;
        filter: url(#drop-shadow-1);
        stroke: #ddd;
        stroke-miterlimit: 10;
      }
    </style>
    <clipPath id="clippath">
      <rect class="cls-17" x="941.15" y="118.09" width="303.53" height="294.34" transform="translate(193.37 940.27) rotate(-50.53)"/>
    </clipPath>
    <clipPath id="clippath-1">
      <rect class="cls-17" x="47.97" y="198.81" width="303.53" height="294.34" transform="translate(-127.5 116.82) rotate(-25)"/>
    </clipPath>
    <filter id="drop-shadow-1" filterUnits="userSpaceOnUse">
      <feOffset dx="8" dy="8"/>
      <feGaussianBlur result="blur" stdDeviation="10"/>
      <feFlood flood-color="#000" flood-opacity=".25"/>
      <feComposite in2="blur" operator="in"/>
      <feComposite in="SourceGraphic"/>
    </filter>
    <clipPath id="clippath-2">
      <rect class="cls-17" x="147.1" y="757.09" width="294.34" height="303.53" transform="translate(-159.34 68.11) rotate(-10.41)"/>
    </clipPath>
    <linearGradient id="linear-gradient" x1="598.1" y1="882.64" x2="673.33" y2="641.77" gradientUnits="userSpaceOnUse">
      <stop offset="0" stop-color="#aedae7"/>
      <stop offset="1" stop-color="#e2e3e4"/>
    </linearGradient>
    <linearGradient id="linear-gradient-2" x1="684.41" y1="553.46" x2="684.41" y2="698.36" gradientUnits="userSpaceOnUse">
      <stop offset="0" stop-color="#872c3d"/>
      <stop offset="1" stop-color="#ef3d4b"/>
    </linearGradient>
    <linearGradient id="linear-gradient-3" x1="685.26" y1="753.06" x2="685.26" y2="722.83" xlink:href="#linear-gradient-2"/>
    <linearGradient id="linear-gradient-4" x1="649.55" y1="450.98" x2="649.55" y2="685.86" gradientUnits="userSpaceOnUse">
      <stop offset="0" stop-color="#fff" stop-opacity=".7"/>
      <stop offset=".23" stop-color="#fff" stop-opacity=".55"/>
      <stop offset=".75" stop-color="#fff" stop-opacity=".19"/>
      <stop offset="1" stop-color="#fff" stop-opacity="0"/>
    </linearGradient>
    <linearGradient id="linear-gradient-5" x1="693.55" y1="368.62" x2="667.95" y2="412.06" gradientUnits="userSpaceOnUse">
      <stop offset="0" stop-color="#584b39"/>
      <stop offset="1" stop-color="#39271d"/>
    </linearGradient>
    <linearGradient id="linear-gradient-6" x1="527.16" y1="851.83" x2="527.16" y2="728.64" gradientUnits="userSpaceOnUse">
      <stop offset="0" stop-color="#8d8f91"/>
      <stop offset="1" stop-color="#e2e3e4"/>
    </linearGradient>
    <linearGradient id="linear-gradient-7" x1="527.16" y1="654.53" x2="527.16" y2="734.78" xlink:href="#linear-gradient-2"/>
    <linearGradient id="linear-gradient-8" x1="461.93" y1="675.01" x2="461.93" y2="759.76" xlink:href="#linear-gradient-4"/>
    <linearGradient id="linear-gradient-9" x1="526.56" y1="772.5" x2="526.56" y2="740.23" xlink:href="#linear-gradient-2"/>
    <linearGradient id="linear-gradient-10" x1="794.5" y1="818.61" x2="794.5" y2="694.58" gradientUnits="userSpaceOnUse">
      <stop offset="0" stop-color="#c2e2e8"/>
      <stop offset="1" stop-color="#e2e3e4"/>
    </linearGradient>
    <linearGradient id="linear-gradient-11" x1="761.61" y1="490.35" x2="843.62" y2="490.35" xlink:href="#linear-gradient-5"/>
    <linearGradient id="linear-gradient-12" x1="794.5" y1="556.41" x2="794.5" y2="768.62" xlink:href="#linear-gradient-2"/>
    <linearGradient id="linear-gradient-13" x1="794.58" y1="792.36" x2="794.58" y2="770.96" xlink:href="#linear-gradient-2"/>
    <linearGradient id="linear-gradient-14" x1="761.65" y1="562.22" x2="761.65" y2="748.42" xlink:href="#linear-gradient-4"/>
    <linearGradient id="linear-gradient-15" x1="838.48" y1="547.73" x2="838.48" y2="732.69" xlink:href="#linear-gradient-4"/>
    <linearGradient id="linear-gradient-16" x1="803.76" y1="512.46" x2="784.35" y2="572.04" xlink:href="#linear-gradient-5"/>
  </defs>
  <g class="cls-7">
    <g id="Layer_1" data-name="Layer 1">
      <g class="cls-15">
        <path class="cls-16" d="m1019.47,262.17c-10.1,12.26-61.61-32.49-61.61-32.49,0,0-13.48,15.04-13.34,57.38.16,54.58,48.66,116.03,98.64,96.7,6.33-2.34,12.04-6.08,16.71-10.93,4.67-4.86,8.18-10.71,10.28-17.12-6.42,2.95-13.26,4.88-20.28,5.73-12.14,1.42-24.45.28-36.16-3.32,11.18.98,22.43.75,33.54-.68,8.42-1.55,16.47-4.61,23.78-9.04l.53-8.38c-17.14,1.8-34.43,1.77-51.58-.09-10.69-.55-21.08-3.79-30.21-9.41,9.76,4.26,20.25,6.54,30.88,6.71,17.36-.15,34.63-2.46,51.39-6.87.29-7.34.45-15.1.66-23.28-9.72-.89-19.3-2.96-28.52-6.17-11.48-4.27-22.09-10.59-31.3-18.66,10.8,5.3,21.91,9.9,33.28,13.8,8.56,2.79,17.64,3.54,26.51,2.19.36-15.17.26-30.72.06-46.36-7.71-1.3-15.18-3.75-22.17-7.27-6.68-3.11-12.29-8.16-16.08-14.48,5.81,4.13,12.13,7.51,18.79,10.06,6.18,2.36,12.83,3.16,19.38,2.35-.23-21.07-2.71-119.49-2.71-119.49l5.59,87.67c11.16-5.73,21.68-12.62,31.39-20.55,6.6-5.98,12.11-13.06,16.3-20.92,0,0-4.94,8.46-13.42,19.89-9.88,10.94-21.17,20.53-33.58,28.5l3.48,53.76c11.69-3.68,23.07-8.27,34.03-13.74,16.09-8.9,31.53-18.94,46.19-30.02-11.7,12.25-24.86,23.02-39.18,32.08-12.92,7.72-26.46,14.36-40.48,19.88l2.44,37.28c16.72-1.42,33.29-4.17,49.55-8.23,16.8-6.93,33.15-14.91,48.93-23.9-13.77,12.39-29.79,22.03-47.2,28.41-21.19,6.84-42.15,11.7-50.72,13.61l.8,12.26c13.97,4.71,28.61,7.1,43.34,7.07,19.29-1.57,38.38-4.9,57.04-9.95-18.03,7.59-37,12.78-56.41,15.42-14.08.41-28.16-.8-41.97-3.63.26,2.07.63,4.08,1.11,6.02,5.46,6.45,12.35,11.54,20.12,14.87,8.11,2.51,16.6,3.53,25.06,3-8.81,2.73-18.24,2.82-27.12.25-5.18-1.44-10.11-3.67-14.61-6.62,21.99,56.79,100.13,33.12,126.18-24.01,20.45-45.04,8.05-113.1,8.05-113.1-8.93,13.37-20.08,25.11-32.96,34.73-18.48,12.62-55.38,31.73-68.86,17.69-13.48-14.04,71.17-27.86,90.77-62.61,16.56-29.37-32.79-77.12-32.79-77.12,2.43,5.09,3.72,10.64,3.77,16.26.05,5.63-1.15,11.18-3.5,16.28-6.59,18.39-57.54,57.03-71.03,49.79-16.99-9.97,59.41-38.32,50.72-81.98-4.95-24.96-38.04-26.53-58.41-34.49-13.13-5.6-24.69-14.32-33.68-25.41,0,0-7.82,7.79-24.81,25.97-16.99,18.18-39.49,21.31-39.84,40.82-.35,19.51,40.05,42.42,28.27,49.73-11.78,7.31-38.3-40.2-38.3-40.2,0,0-7.59,9.22-24.12,31.18-16.53,21.96,58.96,61.39,49.41,73.18Z"/>
      </g>
      <path class="cls-3" d="m205.74,661.36c-16.25-29.11-35.39-56.5-57.13-81.76-14.1-15.69-26.99-32.44-38.55-50.09-5.6-9.19-10.03-19.05-13.18-29.34-1.46-4.94-6.87-18.92-4.4-23.98-30.43,62.02-56.08,137.2-26.42,204.97,29.66,67.77,102.18,102.53,155.16,149.38.42.27.91.45,1.41.51.5.06,1.01.02,1.49-.14.48-.16.92-.42,1.28-.77.36-.35.64-.78.82-1.25,19.03-55.93,6.93-116.41-20.48-167.53Zm7.4,149.29c-2.91-9.36-6.46-18.51-10.65-27.37-47.15-26.29-87.18-63.74-116.6-109.07-.07.03.43-.71.63-.29,30.28,41.76,68.7,76.94,112.93,103.38-5.19-10.25-10.89-20.23-17.08-29.9-.31-.05-.6-.18-.85-.37-28.09-19.63-51.84-44.87-69.76-74.11s-29.62-61.88-34.36-95.84c-.06-.13-.07-.28-.02-.41.05-.13.15-.24.28-.3.13-.06.28-.07.41-.02.13.05.24.15.3.28,11.6,64.05,46.55,121.54,98.05,161.3-14.36-22.06-29.77-43.64-42.23-67.27-23.49-43.41-38.13-91.05-43.07-140.14-.22-1.01.72-1.19,1.04-.49,8.6,52.68,26.38,103.47,52.51,150.03,4.41,7.64,9.28,15.16,14.35,22.58-15.59-43.61-28.78-88.6-41.56-133.1-.28-.97,1-1.32,1.32-.62,11.87,33.44,23.66,66.91,34.21,100.79,2.74,8.59,5.2,17.32,7.86,25.94,1.7,5.89,3.76,11.66,6.19,17.28,2.87,5.33,6.18,10.42,9.89,15.21,7.44,10.49,14.59,21.1,21.12,32.19-4.97-19.38-7.45-39.41-12.22-58.55-6.45-25.84-14.43-51.3-22.24-76.76-.38-1.18,1.14-1.55,1.53-.71,9.44,23.88,17.29,48.36,23.5,73.28,6.18,23.24,14.05,48.84,14.73,73.03,6.56,12.37,11.39,25.58,14.33,39.27.64,3.02-3.7,3.51-4.56.77Z"/>
      <g class="cls-9">
        <path class="cls-16" d="m264.68,380.42c14.39-6.71,41.6,55.87,41.6,55.87,0,0,18.64-7.77,36.77-46.03,23.38-49.33,6.09-125.67-47.34-129.77-6.72-.62-13.48.3-19.79,2.66-6.31,2.37-12,6.13-16.65,11.02,7.06.11,14.07,1.31,20.77,3.57,11.56,3.95,22.19,10.28,31.19,18.58-9.67-5.7-19.91-10.34-30.56-13.84-8.26-2.23-16.85-2.94-25.35-2.09l-4.09,7.34c16.24,5.76,31.83,13.24,46.5,22.31,9.41,5.11,17.39,12.5,23.21,21.51-6.97-8.05-15.46-14.63-24.97-19.36-15.73-7.35-32.3-12.71-49.33-15.95-3.43,6.5-6.92,13.43-10.63,20.72,8.39,4.99,16.14,10.99,23.08,17.86,8.52,8.8,15.36,19.08,20.2,30.33-7.46-9.43-15.51-18.38-24.09-26.8-6.52-6.2-14.39-10.79-22.98-13.4-6.86,13.54-13.47,27.61-20.03,41.8,6.39,4.5,12.08,9.93,16.87,16.12,4.69,5.69,7.57,12.66,8.27,19.99-3.47-6.23-7.71-12.01-12.62-17.17-4.56-4.79-10.22-8.39-16.48-10.47-8.88,19.11-49.04,108.99-49.04,108.99l32.74-81.52c-12.54.36-25.01,2.04-37.19,5.02-8.53,2.56-16.55,6.57-23.72,11.86,0,0,8.11-5.5,20.68-12.16,13.63-5.62,27.95-9.4,42.58-11.24l20.02-50.01c-12.14-1.72-24.38-2.48-36.63-2.27-18.36,1.1-36.61,3.5-54.62,7.18,15.84-6.01,32.35-10.06,49.18-12.07,14.99-1.39,30.07-1.55,45.09-.49l13.86-34.69c-15.7-5.93-31.84-10.59-48.26-13.93-18.15-.99-36.33-.83-54.45.48,17.77-5.24,36.38-7.04,54.84-5.3,22.06,2.96,43.07,7.61,51.63,9.58l4.56-11.4c-10.58-10.28-22.76-18.74-36.06-25.06-18.08-6.9-36.75-12.12-55.76-15.61,19.54.92,38.89,4.41,57.55,10.4,12.88,5.69,25.06,12.86,36.31,21.36.66-1.98,1.19-3.95,1.59-5.91-2.14-8.17-6.17-15.74-11.75-22.08-6.23-5.76-13.46-10.34-21.32-13.51,9.12,1.33,17.67,5.32,24.58,11.46,4.05,3.53,7.54,7.67,10.33,12.27,4.62-60.72-76.09-73.04-124.21-32.71-37.86,31.83-56,98.59-56,98.59,13.82-8.21,28.94-14.01,44.71-17.14,22.12-3.42,63.65-4.77,69.77,13.71,6.11,18.48-76.23-5.53-108.89,17.38-27.6,19.36-3.65,83.72-3.65,83.72,0-5.64,1.23-11.2,3.61-16.3,2.38-5.1,5.86-9.6,10.18-13.18,13.87-13.76,76.5-26.66,85.55-14.32,11.04,16.32-70.12,8.98-81.1,52.12-6.29,24.66,22.89,40.34,37.84,56.29,9.43,10.71,16.11,23.57,19.44,37.45,0,0,10.41-3.66,33.58-12.74,23.17-9.08,44.82-2.21,53.54-19.67,8.73-17.45-17.86-55.54-4.08-57.06,13.78-1.52,17.23,52.78,17.23,52.78,0,0,10.82-5.05,35.21-17.74,24.38-12.69-26.75-80.81-13.05-87.33Z"/>
      </g>
      <circle class="cls-27" cx="665.95" cy="563.19" r="520.4"/>
      <g class="cls-6">
        <path class="cls-16" d="m343.96,854.69c-2.87-15.62,64.54-26.18,64.54-26.18,0,0-2.82-20-35.28-47.18-41.85-35.05-120.08-37.55-137.51,13.12-2.29,6.35-3.11,13.12-2.41,19.82.7,6.7,2.91,13.16,6.47,18.89,1.88-6.81,4.81-13.28,8.68-19.2,6.74-10.19,15.54-18.88,25.84-25.51-7.95,7.92-15.02,16.67-21.09,26.09-4.24,7.43-7.09,15.57-8.41,24l6.07,5.81c9.66-14.27,20.83-27.47,33.3-39.38,7.31-7.82,16.48-13.68,26.66-17.04-9.54,4.72-18.05,11.27-25.03,19.29-11.07,13.37-20.43,28.06-27.87,43.72,5.43,4.95,11.25,10.07,17.38,15.5,6.94-6.86,14.7-12.85,23.1-17.84,10.66-6.03,22.33-10.06,34.44-11.91-11.01,4.84-21.69,10.38-32,16.56-7.65,4.75-14.07,11.21-18.76,18.86,11.37,10.05,23.33,19.99,35.41,29.92,5.96-5.05,12.65-9.19,19.85-12.26,6.69-3.11,14.16-4.14,21.43-2.97-6.91,1.78-13.56,4.43-19.8,7.89-5.78,3.21-10.69,7.78-14.28,13.31,16.26,13.4,93.12,74.92,93.12,74.92l-70.64-52.22c-2.81,12.23-4.32,24.71-4.51,37.25.32,8.9,2.18,17.67,5.5,25.94,0,0-3.28-9.23-6.56-23.08-2-14.61-2.05-29.41-.15-44.04l-43.36-31.98c-4.72,11.31-8.54,22.97-11.42,34.88-3.56,18.04-5.84,36.31-6.81,54.67-1.82-16.84-1.58-33.84.71-50.64,2.43-14.85,6.07-29.49,10.89-43.76l-30.08-22.16c-9.69,13.7-18.26,28.14-25.64,43.19-5.53,17.31-9.96,34.95-13.25,52.82-.6-18.51,2.35-36.98,8.69-54.41,8.42-20.61,18.21-39.77,22.28-47.55l-9.89-7.29c-12.61,7.65-23.87,17.3-33.33,28.58-11.23,15.76-20.99,32.51-29.15,50.03,5.81-18.68,14.07-36.53,24.56-53.07,8.75-11.03,18.76-21.02,29.82-29.76-1.75-1.14-3.53-2.14-5.32-3.03-8.45.02-16.78,2-24.33,5.8-7.15,4.58-13.4,10.42-18.45,17.23,3.59-8.5,9.6-15.76,17.28-20.9,4.44-3.03,9.33-5.36,14.48-6.91-57.6-19.77-89.85,55.23-62.95,111.96,21.27,44.66,81.3,79.03,81.3,79.03-4.47-15.44-6.27-31.53-5.32-47.58,2.26-22.27,11.42-62.8,30.84-64.06,19.43-1.26-24.56,72.38-10.61,109.76,11.78,31.59,80.1,24.62,80.1,24.62-5.46-1.42-10.53-4.01-14.86-7.6-4.33-3.59-7.81-8.09-10.2-13.17-9.82-16.89-6.53-80.75,7.7-86.4,18.57-6.57-8.98,70.12,30.01,91.61,22.28,12.3,44.8-11.99,64.01-22.44,12.74-6.43,26.86-9.65,41.13-9.38,0,0-.92-11-3.87-35.71-2.95-24.71,9.15-43.93-5.54-56.77-14.69-12.84-58.25,3.29-56.25-10.43,2-13.72,55.42-3.38,55.42-3.38,0,0-2.16-11.74-8.3-38.54-6.14-26.8-84.94,5.53-87.8-9.37Z"/>
      </g>
      <path class="cls-3" d="m1045.31,201.48c-24.55-50.27-35.77-112.88-81.19-149.77-45.42-36.89-108.15-33.18-161.84-23.05,4.38-.81,13.9,6.26,17.36,8.41,7.18,4.57,13.76,10.02,19.59,16.23,11.02,12.53,21.08,25.89,30.07,39.94,14.67,21.9,31.53,42.27,50.29,60.79,33.21,31.66,76.76,53.63,123.41,50.91.4-.04.79-.16,1.13-.37.34-.2.64-.48.86-.81.22-.33.36-.71.42-1.1.06-.4.02-.8-.1-1.18Zm-15-7.04c-9.81-5.13-18.87-11.59-26.91-19.2-18.3-5.62-36.16-17.01-52.58-26.62-17.69-9.98-34.7-21.13-50.92-33.35-.56-.48.05-1.56.87-1.02,17.77,11.31,35.5,22.76,53.84,33.13,13.58,7.66,28.33,13.77,42.06,21.64-7.07-7.31-13.66-15-20.09-22.88-2.87-3.84-6.05-7.43-9.51-10.75-3.77-3.03-7.74-5.83-11.87-8.36-6.01-3.85-12.15-7.56-18.12-11.46-23.61-15.18-46.65-31.22-69.64-47.32-.46-.39.07-1.3.75-.88,31.23,19.13,62.76,38.66,92.72,59.74-4.59-5.43-9.29-10.73-14.19-15.7-29.99-29.74-64.97-53.99-103.32-71.65-.47-.39-.13-1.07.59-.69,36.39,14.1,69.63,35.3,97.77,62.36,15.39,14.48,28.59,30.77,42.39,46.37-19.46-47.64-55.93-86.4-102.32-108.74-.08-.07-.14-.18-.15-.29-.01-.11.03-.22.1-.31.08-.08.18-.14.29-.15.12-.01.23.03.32.1,24.89,10.78,47.3,26.57,65.82,46.4,18.52,19.82,32.76,43.24,41.81,68.8.09.23.13.47.1.72,6.07,6.76,12.48,13.21,19.2,19.33-10.85-39.3-29.57-76-55.03-107.88-.28-.24.39-.47.35-.42,28.37,31.98,48.48,70.39,58.6,111.88,5.87,5.05,12.1,9.69,18.62,13.88,1.91,1.23.62,4.44-1.55,3.32Z"/>
      <text class="cls-19" transform="translate(704.18 1019.39) rotate(-12.97)"><tspan x="0" y="0">B</tspan></text>
      <text class="cls-19" transform="translate(862.25 974.48) rotate(-31.16)"><tspan x="0" y="0">o</tspan></text>
      <text class="cls-19" transform="translate(955.11 914.46) rotate(-44.16)"><tspan x="0" y="0">t</tspan></text>
      <text class="cls-19" transform="translate(1022.6 847.39) rotate(-57.85)"><tspan x="0" y="0">a</tspan></text>
      <text class="cls-19" transform="translate(1086.63 739.43) rotate(-74.48)"><tspan x="0" y="0">n</tspan></text>
      <text class="cls-19" transform="translate(1115.66 614.78) rotate(-87.45)"><tspan x="0" y="0">i</tspan></text>
      <text class="cls-19" transform="translate(1118.46 543.68) rotate(-98.03)"><tspan x="0" y="0">c</tspan></text>
      <text class="cls-19" transform="translate(307.34 625.02) rotate(-84.26)"><tspan x="0" y="0">P</tspan></text>
      <text class="cls-19" transform="translate(320.68 510.56) rotate(-72.5)"><tspan x="0" y="0">r</tspan></text>
      <text class="cls-19" transform="translate(340.04 446.48) rotate(-63.19)"><tspan x="0" y="0">e</tspan></text>
      <text class="cls-19" transform="translate(373.84 378.7) rotate(-53.51)"><tspan x="0" y="0">c</tspan></text>
      <text class="cls-19" transform="translate(418.71 318.95) rotate(-45.51)"><tspan x="0" y="0">i</tspan></text>
      <text class="cls-19" transform="translate(451.92 282.69) rotate(-36.89)"><tspan x="0" y="0">o</tspan></text>
      <text class="cls-19" transform="translate(517.38 231.54) rotate(-25.05)"><tspan x="0" y="0">u</tspan></text>
      <text class="cls-19" transform="translate(608.79 189.8) rotate(-14.01)"><tspan x="0" y="0">s</tspan></text>
      <g>
        <path class="cls-11" d="m684.46,358.81c4.79-.19,30.35-1.23,29.67-1.23,0,0-1.76-16.1-12.58-16.1h-34.95c-10.82,0-12.58,16.1-12.58,16.1-.68,0,24.88,1.03,29.67,1.23v.03s.14,0,.38-.02c.25,0,.38.02.38.02v-.03Z"/>
        <path class="cls-22" d="m725.89,411.79h-83c-38.11,30.19-34.34,75.84-34.34,75.84v249.41c0,9.24,3.02,14.72,3.02,14.72h.02c.43,9.32,32.85,16.85,72.8,16.85s72.37-7.53,72.8-16.85h.01s3.02-5.47,3.02-14.72v-249.41s3.77-45.66-34.34-75.84Z"/>
        <path class="cls-1" d="m720.76,413.54l-38.15,3.41h-6.65l-26.99-3.25c-37.16,23.77-36.22,76.61-36.22,76.61v241.23c0,8.94,2.85,14.23,2.85,14.23h.02c.41,9.02,31.04,16.3,68.78,16.3s68.37-7.28,68.78-16.3h.01s2.85-5.29,2.85-14.23v-241.23s2.99-46.69-35.27-76.76Z"/>
        <rect class="cls-11" x="664.21" y="293.94" width="39.74" height="49.3"/>
        <path class="cls-11" d="m645.91,287.28s53.96.38,72.63-1.32c18.68-1.7,37.17-9.06,48.49,12.07l-5.66,3.77s-3.4-6.6-18.49-6.6h-94.52s-5.85-2.64-2.45-7.92Z"/>
        <ellipse class="cls-21" cx="685.26" cy="738.8" rx="66.55" ry="18.62"/>
        <path class="cls-23" d="m619.89,717.9v-219.57s0-.02,0-.04c-.09-1.06-2.36-55.84,35.22-83.74.06-.05,12.46,1.97,12,2.3-33.19,24.78-30.21,75.29-30.13,76.24,0,.02,0,.02,0,.04v228.24c0,.19.09.37.24.48,12.55,9.26,27.79,14.21,41.84,16.78.72.13.59,1.19-.14,1.15-33.77-1.72-59.37-9.97-59.37-19.9,0-.62.11-1.23.31-1.84.02-.05.03-.11.03-.16Z"/>
        <path class="cls-14" d="m725.27,357.58h-82.38v53.74c-.04.11-.06.21-.06.32,0,3.33,18.44,6.04,41.2,6.04s40.66-2.63,41.17-5.89h.07v-54.21Z"/>
        <g>
          <path class="cls-5" d="m599.35,634.4c0-14.34,22.14-23.27,22.14-23.27v-18.87c-26.03-23.77-94.33-22.39-94.33-22.39,0,0-68.29-1.38-94.33,22.39v18.87s22.14,8.93,22.14,23.27-15.85,9.56-25.91,38.23v73.45s13.33,7.8,13.33,16.85c0,0,8.05,23.65,84.77,23.65s84.77-23.65,84.77-23.65c0-9.06,13.33-16.85,13.33-16.85v-73.45c-10.06-28.68-25.91-23.9-25.91-38.23Z"/>
          <path class="cls-18" d="m604.35,650.1c-14.5,6.26-40.71,11.73-77.82,11.73-40.45,0-64.46-6.44-75.72-12.41-5.01,3.97-11.38,9.52-16.3,23.53v69.36s12.59,7.36,12.59,15.92c0,0,7.6,22.33,80.05,22.33s80.05-22.33,80.05-22.33c0-8.55,12.59-15.92,12.59-15.92v-69.36c-4.64-13.23-10.58-18.91-15.45-22.85Z"/>
          <path class="cls-24" d="m463.97,645.76s-17.95,19.52-17.95,37.79v63.29s5.04,5.98,6.93,13.23c1.89,7.24,19.52,14.48,19.52,14.48,0,0-14.8-14.48-14.8-33.69v-57.31s2.52-26.14,20.15-33.69l-13.85-4.09Z"/>
          <ellipse class="cls-20" cx="526.56" cy="757.27" rx="71.17" ry="19.88"/>
          <path class="cls-11" d="m621.49,592.27c-26.03-23.77-94.33-23.65-94.33-23.65,0,0-68.29-.12-94.33,23.65v17.36c-.19.5-.31,1-.31,1.5,0,4.06,6.2,7.81,16.75,10.91,3.26,3.44,5.7,7.6,5.7,12.36,0,4.18-1.36,6.74-3.52,8.97,12.54,5.59,37.51,13.73,76.76,13.73s63.23-7.32,75.91-12.53c-2.88-2.55-4.77-5.23-4.77-10.17s2.51-9.04,5.84-12.51c10.21-3.06,16.18-6.75,16.22-10.73.05-.02.07-.03.07-.03v-18.87Z"/>
          <path class="cls-12" d="m617.64,593.18c0,8.87-40.6,21.73-90.69,21.73s-90.69-12.86-90.69-21.73,46.6-23.3,90.69-23.3c46.29,0,90.69,14.43,90.69,23.3Z"/>
          <path class="cls-12" d="m599.43,633.12c.39-4.16,2.6-7.83,5.49-10.93-17.27,4.92-45.74,10.35-77.96,10.35s-60.13-5.36-77.45-10.2c2.59,2.8,4.6,6.07,5.22,9.74,6.92,3.61,21.4,11.37,72.53,11.37,45.23,0,59.3-5.25,72.16-10.34Z"/>
        </g>
        <g>
          <path class="cls-10" d="m737.27,552.1v237.16h.15c0,10.93,25.59,19.79,57.16,19.79s57.16-8.86,57.16-19.79v-237.16h-114.47Z"/>
          <path class="cls-8" d="m761.61,509.59v-38.74h82s-3.27,14.34-19.62,16.6v22.39l-62.38-.25Z"/>
          <path class="cls-25" d="m742.17,552.02v236.1h.15c0,9.41,23.4,17.04,52.26,17.04s52.26-7.63,52.26-17.04v-236.1h-104.66Z"/>
          <ellipse class="cls-26" cx="794.58" cy="786.85" rx="48.4" ry="15.78"/>
          <rect class="cls-4" x="752.83" y="550.25" width="17.63" height="219.16"/>
          <rect class="cls-2" x="834.07" y="550.25" width="8.82" height="219.16"/>
          <path class="cls-13" d="m851.87,552.05s-6.56-15.85-6.56-26.79v-16.6h-101.48v16.6c0,10.94-6.56,26.79-6.56,26.79h.06c-.03.16-.06.32-.06.49,0,6.56,25.63,11.89,57.24,11.89s57.24-5.32,57.24-11.89c0-.16-.03-.33-.06-.49h.19Z"/>
        </g>
      </g>
    </g>
  </g>
</svg>