<?xml version="1.0" encoding="utf-8"?>
<!-- Generator: Adobe Illustrator 27.0.0, SVG Export Plug-In . SVG Version: 6.00 Build 0)  -->
<svg version="1.1" id="Layer_1" xmlns="http://www.w3.org/2000/svg" xmlns:xlink="http://www.w3.org/1999/xlink" x="0px" y="0px"
	 viewBox="0 0 200 150" style="enable-background:new 0 0 200 150;" xml:space="preserve">
<style type="text/css">
	.st0{fill:none;stroke:#17AB61;stroke-width:0.9929;stroke-miterlimit:10;}
	.st1{fill:none;stroke:#06B663;stroke-width:0.9929;stroke-miterlimit:10;}
	.st2{fill:none;stroke:#06B663;stroke-width:0.9787;stroke-miterlimit:10;}
	.st3{fill:none;stroke:#06B663;stroke-width:0.9736;stroke-miterlimit:10;}
	.st4{fill:none;stroke:#06B663;stroke-width:0.6619;stroke-miterlimit:10;}
	.st5{fill:none;stroke:#06B663;stroke-width:0.5402;stroke-miterlimit:10;}
	.st6{fill:#06B663;}
	.st7{fill:none;}
</style>
<g>
	<g>
		<g>
			<g>
				<path class="st0" d="M94.23,137.2L94.23,137.2c-16.89,0-30.59-13.7-30.59-30.59V61.32c0-16.89,13.7-30.59,30.59-30.59h0
					c16.89,0,30.59,13.7,30.59,30.59v45.29C124.82,123.51,111.12,137.2,94.23,137.2z"/>
				<g>
					<g>
						<path class="st1" d="M72.57,98.71c-0.02,0.1-0.05,0.26-0.08,0.45c-0.27,1.85,0.28,3.85,0.28,3.85
							c0.38,1.49,0.77,3.91,1.24,7.34c0.11,1.31,0.1,2.41,0.05,3.25c-0.08,1.49-0.28,2.3-0.39,2.7c-0.11,0.4-0.23,0.72-0.31,0.96
							c-0.06,0.18-0.17,0.43-0.31,0.72c-0.25,0.48-0.5,0.83-0.74,1.15c-0.75,0.96-1.65,1.92-1.94,2.23c0,0-2.62-1.35-3.04-3.04
							c0,0-0.19-0.32-0.43-0.85c-0.49-1.05-1.2-2.93-1.09-4.73c0,0,0.25-7.27,1.94-9.21c0.43-0.99,0.8-1.78,1.06-2.31
							c0.43-0.91,0.64-1.3,0.97-2.04c0.38-0.85,0.64-1.56,0.79-2.01c0.1-0.26,0.19-0.53,0.26-0.83c0.29-1.13,0.29-2.16,0.21-2.95
							c0,0,0.86-0.2,1.48,0.31c0.47,0.39,0.56,1.15,0.63,1.68c0.01,0.09,0.02,0.16,0.02,0.21c0,0.04,0.01,0.1,0.02,0.17
							c0.04,0.37,0.05,0.72,0.04,0.9c-0.03,0.63-0.36,0.99-0.57,1.73C72.62,98.53,72.59,98.64,72.57,98.71z"/>
						<path class="st1" d="M72.48,99.35c-0.37,0.3-0.78,0.71-1.13,1.27c-1.17,1.86-0.75,3.9-0.61,4.47
							c0.13,0.73,0.26,1.48,0.41,2.23c0.21,1.06,0.43,2.1,0.65,3.12c0.15,0.56,0.29,1.31,0.31,2.19c0.02,1.07-0.16,1.97-0.34,2.6
							c-0.09,0.34-0.25,0.72-0.53,1.09c-1.12,1.48-3.19,1.38-3.46,1.36c-0.26-0.06-0.52-0.13-0.78-0.19"/>
						<path class="st1" d="M70.1,121.62c-0.24,0.32-0.61,0.75-1.14,1.14c-2.8,2.05-6.8,0.65-7.73,0.32
							c-1.28-0.46-2.41-1.09-4.54-2.76c-1.91-1.5-4.5-3.73-7.3-6.82c0,0-0.93-1.27,1.18-1.77c-1.81-1.36-3.87-3.11-5.96-5.32
							c-1.9-2.02-3.42-3.99-4.61-5.75c-0.07-0.16-0.21-0.56-0.08-1.01c0,0,0.08-0.29,0.3-0.55c0.41-0.5,1.54-0.76,2.92-0.63
							c0,0,10.65,0.68,18.76,13.69c0.16,0.26,0.71,0.96,1.66,1.44c0.83,0.41,1.63,0.47,2.12,0.46"/>
						<path class="st1" d="M40.36,99.11c0,0,14.64,11.15,16.1,12.74"/>
						<path class="st1" d="M50.58,111.73c1.87-0.04,3.97,0.02,6.25,0.24c2.09,0.21,4,0.52,5.71,0.88"/>
						<path class="st1" d="M55.06,103.87c0,0-0.76-13.37,0.89-14.2c1.4,0.95,4.67,3.46,6.55,8.02c1.38,3.35,1.41,6.35,1.3,8
							c-0.14,1.24-0.22,2.68-0.16,4.29c0.05,1.36,0.19,2.59,0.37,3.67"/>
						<path class="st1" d="M66.82,105.61c-0.45-2.51-0.79-5.73-0.56-9.47c0.32-5.27,1.64-9.53,2.8-12.43
							c0.07-0.07,0.13-0.11,0.2-0.11c0.63,0.01,1.21,3.25,1.76,9.73"/>
						<path class="st1" d="M62.32,97.32c0.71,0.65,1.49,1.42,2.27,2.34c0.71,0.84,1.31,1.66,1.8,2.41"/>
						<path class="st1" d="M54.3,118.25c0,0,4.94-0.51,9.06,1.33c0,0,2.28,0.95,3.93-0.32"/>
					</g>
				</g>
				<g>
					<g>
						<path class="st1" d="M109.87,85.64c0.27-0.13,0.56-0.29,0.86-0.5c1.08-0.75,1.71-1.68,2.07-2.34c0,0,0.24-0.35,0.56-0.94
							c0.64-1.17,1.61-3.28,1.65-5.38c0,0,0.39-8.43-1.32-10.83c-0.39-1.18-0.73-2.13-0.96-2.77c-0.4-1.09-0.6-1.56-0.89-2.44
							c-0.34-1.02-0.56-1.86-0.7-2.4c-0.08-0.3-0.16-0.63-0.22-0.98c-0.22-1.34-0.13-2.52,0.04-3.43c0,0-0.94-0.31-1.68,0.23
							c-0.56,0.41-0.73,1.28-0.86,1.89c-0.02,0.1-0.04,0.18-0.05,0.24c-0.01,0.05-0.02,0.11-0.04,0.2
							c-0.08,0.43-0.12,0.83-0.13,1.04c-0.03,0.73,0.31,1.18,0.48,2.06c0.03,0.16,0.05,0.29,0.06,0.37
							c0.01,0.12,0.03,0.31,0.05,0.53c0.13,2.16-0.67,4.42-0.67,4.42c-1.04,1.96-2.16,4.53-2.93,7.66
							c-0.45,1.81-0.69,3.49-0.82,4.98"/>
						<path class="st1" d="M109.9,81.36c1.07,0.61,2.23,0.64,2.44,0.65c0.3-0.05,0.59-0.1,0.89-0.15"/>
						<path class="st1" d="M108.79,60.39c0.38,0.37,0.8,0.89,1.14,1.57c1.13,2.25,0.47,4.58,0.27,5.22
							c-0.21,0.84-0.43,1.68-0.66,2.54c-0.33,1.21-0.67,2.4-1.02,3.55c-0.26,0.86-0.39,1.56-0.54,2.5
							c-0.17,1.07-0.23,1.98-0.25,2.64"/>
						<path class="st1" d="M109.93,85.88c0.03,0.55,0.16,1.27,0.62,1.92c2.01,2.84,8.15,1.18,8.58,1.06
							c1.47-0.41,2.78-1.05,5.31-2.79c2.27-1.57,5.36-3.91,8.76-7.25c0,0,1.15-1.38-1.15-2.16c2.14-1.41,4.6-3.25,7.13-5.63
							c2.31-2.17,4.17-4.32,5.66-6.24c0.09-0.18,0.29-0.62,0.19-1.17c0,0-0.06-0.34-0.28-0.66c-0.42-0.62-1.64-1.02-3.19-0.99
							c0,0-11.92-0.16-22.16,14.17c-0.13,0.18-0.8,1.02-1.98,1.51c-0.9,0.38-1.77,0.4-2.41,0.35"/>
						<path class="st1" d="M144.59,62.98c0,0-17.34,11.61-19.11,13.31"/>
						<path class="st1" d="M132.04,76.66c-2.08-0.21-4.43-0.33-6.99-0.27c-2.35,0.05-4.51,0.24-6.45,0.51"/>
						<path class="st1" d="M127.77,67.17c0,0,2.08-15.4,0.32-16.5c-1.65,0.98-5.52,3.59-8.03,8.7c-1.85,3.75-2.15,7.22-2.18,9.14
							c0.04,1.45,0,3.13-0.22,4.97c-0.18,1.56-0.45,2.97-0.75,4.21"/>
						<path class="st1" d="M114.51,68.14c0.74-2.86,1.41-6.56,1.5-10.9c0.13-6.13-0.95-11.17-1.98-14.63
							c-0.07-0.09-0.14-0.14-0.21-0.14c-0.7-0.05-1.65,3.65-2.86,11.11"/>
						<path class="st1" d="M120.29,58.95c-0.86,0.68-1.79,1.51-2.75,2.51c-0.87,0.91-1.61,1.8-2.22,2.63"/>
						<path class="st1" d="M127.3,83.88c0,0-5.46-1.03-10.22,0.74c-0.48,0.13-1.37,0.3-2.46,0.11c-1.05-0.19-1.81-0.63-2.22-0.9"/>
					</g>
				</g>
				<g>
					<path class="st2" d="M98.84,78.35h7.22c2.13,0,3.85,1.72,3.85,3.85v38.31c0,2.13-1.72,3.85-3.85,3.85H83.21
						c-2.13,0-3.85-1.72-3.85-3.85V82.2c0-2.13,1.72-3.85,3.85-3.85h3.31"/>
					<path class="st3" d="M103.7,54.77c-2.54-0.43-5.59-0.76-9.03-0.76c-2.58,0-5.63,0.18-9.03,0.76c0,5.94,0,11.87,0,17.81h18.06
						V54.77z"/>
					<line class="st3" x1="101.54" y1="57.69" x2="101.54" y2="72.64"/>
					<path class="st3" d="M87.28,54.39c0,0,0.44-4.63-1.46-7.16c0,0-2.09-2.15-0.82-4.25c0,0,2.22-1.65,8.62,0
						c6.4,1.65,7.22,4.56,8.11,11.09"/>
					<path class="st3" d="M86.46,72.52c0,0,0.19,3.3-2.28,5.64"/>
					<path class="st3" d="M103.13,72.64c0,0-0.19,3.3,2.28,5.64"/>
				</g>
			</g>
			<line class="st1" x1="82.77" y1="100.7" x2="105.71" y2="100.7"/>
			<line class="st1" x1="82.77" y1="106.28" x2="105.71" y2="106.28"/>
		</g>
		<circle class="st4" cx="66.18" cy="129.56" r="1.77"/>
		<circle class="st4" cx="57.18" cy="65.04" r="1.77"/>
		<circle class="st4" cx="105.22" cy="45.14" r="1.77"/>
		<circle class="st4" cx="134.88" cy="55.91" r="1.77"/>
		<path class="st5" d="M76.19,72.71L76.19,72.71c0-2.49-2.01-4.5-4.5-4.5v0c2.49,0,4.5-2.01,4.5-4.5h0c0,2.49,2.01,4.5,4.5,4.5v0
			C78.21,68.21,76.19,70.22,76.19,72.71z"/>
		<path class="st5" d="M133.99,102.2L133.99,102.2c0-2.49-2.01-4.5-4.5-4.5v0c2.49,0,4.5-2.01,4.5-4.5h0c0,2.49,2.01,4.5,4.5,4.5v0
			C136.01,97.7,133.99,99.71,133.99,102.2z"/>
		<g>
			<g>
				<rect x="75.86" y="46.85" class="st6" width="0.89" height="2.85"/>
				<rect x="75.86" y="53.6" class="st6" width="0.89" height="2.85"/>
			</g>
			<g>
				
					<rect x="79.24" y="50.22" transform="matrix(-1.836970e-16 1 -1 -1.836970e-16 131.3286 -28.0294)" class="st6" width="0.89" height="2.85"/>
				
					<rect x="72.49" y="50.22" transform="matrix(-1.836970e-16 1 -1 -1.836970e-16 124.5789 -21.2797)" class="st6" width="0.89" height="2.85"/>
			</g>
		</g>
		<g>
			<g>
				<rect x="126.85" y="34.76" class="st6" width="0.89" height="2.85"/>
				<rect x="126.85" y="41.51" class="st6" width="0.89" height="2.85"/>
			</g>
			<g>
				
					<rect x="130.22" y="38.13" transform="matrix(-1.836970e-16 1 -1 -1.836970e-16 170.2261 -91.1052)" class="st6" width="0.89" height="2.85"/>
				
					<rect x="123.47" y="38.13" transform="matrix(-1.836970e-16 1 -1 -1.836970e-16 163.4765 -84.3556)" class="st6" width="0.89" height="2.85"/>
			</g>
		</g>
		<g>
			<g>
				<rect x="46.03" y="82.91" class="st6" width="0.89" height="2.85"/>
				<rect x="46.03" y="89.66" class="st6" width="0.89" height="2.85"/>
			</g>
			<g>
				
					<rect x="49.4" y="86.29" transform="matrix(-1.836970e-16 1 -1 -1.836970e-16 137.5554 37.8667)" class="st6" width="0.89" height="2.85"/>
				
					<rect x="42.65" y="86.29" transform="matrix(-1.836970e-16 1 -1 -1.836970e-16 130.8057 44.6163)" class="st6" width="0.89" height="2.85"/>
			</g>
		</g>
		<g>
			<g>
				<rect x="116.88" y="96.09" class="st6" width="0.89" height="2.85"/>
				<rect x="116.88" y="102.84" class="st6" width="0.89" height="2.85"/>
			</g>
			<g>
				
					<rect x="120.26" y="99.47" transform="matrix(-1.836970e-16 1 -1 -1.836970e-16 221.5931 -19.8062)" class="st6" width="0.89" height="2.85"/>
				
					<rect x="113.51" y="99.47" transform="matrix(-1.836970e-16 1 -1 -1.836970e-16 214.8434 -13.0566)" class="st6" width="0.89" height="2.85"/>
			</g>
		</g>
	</g>
	<path id="SVGID_x5F_1_x5F_" class="st7" d="M44.88,75.79c0-31.92,24.12-57.8,53.87-57.8s53.87,25.88,53.87,57.8"/>
	<text>	<textPath  xlink:href="#SVGID_x5F_1_x5F_" startOffset="0%">
<tspan  style="fill:#04BC5B; font-family:'CopperplateGothic-Light'; font-size:10.7896px; letter-spacing:43;">NATURAL BEAUTY SKINCARE</tspan>	</textPath>
</text>
</g>
</svg>
