<?xml version="1.0" encoding="utf-8"?>
<!-- Generator: Adobe Illustrator 27.0.0, SVG Export Plug-In . SVG Version: 6.00 Build 0)  -->
<svg version="1.1" id="Layer_1" xmlns="http://www.w3.org/2000/svg" xmlns:xlink="http://www.w3.org/1999/xlink" x="0px" y="0px"
	 viewBox="0 0 200 150" style="enable-background:new 0 0 200 150;" xml:space="preserve">
<style type="text/css">
	.st0{fill:none;stroke:#17AB61;stroke-width:0.7908;stroke-miterlimit:10;}
	.st1{fill:none;stroke:#06B663;stroke-width:0.7908;stroke-miterlimit:10;}
	.st2{fill:none;stroke:#06B663;stroke-width:0.7795;stroke-miterlimit:10;}
	.st3{fill:none;stroke:#06B663;stroke-width:0.7755;stroke-miterlimit:10;}
	.st4{fill:none;stroke:#06B663;stroke-width:0.5272;stroke-miterlimit:10;}
	.st5{fill:none;stroke:#06B663;stroke-width:0.4303;stroke-miterlimit:10;}
	.st6{fill:#06B663;}
	.st7{fill:none;}
	.st8{fill:#00C064;}
	.st9{font-family:'LucidaHandwriting-Italic';}
	.st10{font-size:26.7699px;}
	.st11{letter-spacing:1.13;}
	.st12{fill:#CC1D4B;}
</style>
<g>
	<g>
		<g>
			<g>
				<g>
					<path class="st0" d="M99.62,105.37L99.62,105.37c-13.46,0-24.36-10.91-24.36-24.36V44.93c0-13.46,10.91-24.36,24.36-24.36h0
						c13.46,0,24.36,10.91,24.36,24.36v36.08C123.98,94.47,113.07,105.37,99.62,105.37z"/>
					<g>
						<g>
							<path class="st1" d="M82.37,74.72c-0.02,0.08-0.04,0.21-0.06,0.36c-0.21,1.47,0.22,3.06,0.22,3.06
								c0.3,1.19,0.62,3.12,0.98,5.85c0.09,1.04,0.08,1.92,0.04,2.59c-0.07,1.19-0.22,1.83-0.31,2.15
								c-0.09,0.32-0.18,0.58-0.25,0.76c-0.05,0.14-0.13,0.34-0.25,0.58c-0.2,0.39-0.4,0.66-0.59,0.91
								c-0.6,0.77-1.31,1.53-1.55,1.78c0,0-2.09-1.08-2.42-2.42c0,0-0.15-0.25-0.34-0.67c-0.39-0.84-0.96-2.33-0.87-3.77
								c0,0,0.2-5.79,1.55-7.34c0.34-0.79,0.64-1.42,0.84-1.84c0.35-0.72,0.51-1.03,0.77-1.62c0.3-0.68,0.51-1.24,0.63-1.6
								c0.08-0.2,0.15-0.42,0.21-0.66c0.23-0.9,0.23-1.72,0.17-2.35c0,0,0.68-0.16,1.18,0.25c0.38,0.31,0.44,0.92,0.5,1.34
								c0.01,0.07,0.02,0.12,0.02,0.17c0,0.03,0.01,0.08,0.02,0.14c0.03,0.29,0.04,0.58,0.03,0.72c-0.02,0.5-0.29,0.79-0.46,1.38
								C82.41,74.57,82.38,74.66,82.37,74.72z"/>
							<path class="st1" d="M82.29,75.22c-0.29,0.24-0.62,0.56-0.9,1.01c-0.93,1.48-0.6,3.11-0.49,3.56
								c0.1,0.58,0.21,1.18,0.33,1.78c0.17,0.85,0.34,1.68,0.52,2.48c0.12,0.45,0.23,1.04,0.24,1.74c0.01,0.86-0.13,1.57-0.27,2.07
								c-0.07,0.27-0.2,0.58-0.42,0.87c-0.89,1.18-2.54,1.1-2.76,1.09c-0.21-0.05-0.42-0.1-0.62-0.15"/>
							<path class="st1" d="M80.4,92.96c-0.19,0.26-0.48,0.6-0.91,0.91c-2.23,1.63-5.42,0.52-6.15,0.26
								c-1.02-0.36-1.92-0.87-3.61-2.2c-1.53-1.2-3.58-2.97-5.81-5.43c0,0-0.74-1.01,0.94-1.41c-1.44-1.08-3.08-2.48-4.74-4.24
								c-1.52-1.61-2.72-3.18-3.67-4.58c-0.05-0.13-0.17-0.44-0.07-0.81c0,0,0.06-0.23,0.24-0.44c0.33-0.4,1.22-0.61,2.32-0.5
								c0,0,8.48,0.54,14.94,10.9c0.13,0.2,0.56,0.77,1.32,1.14c0.66,0.33,1.3,0.37,1.69,0.37"/>
							<path class="st1" d="M56.71,75.04c0,0,11.66,8.88,12.82,10.15"/>
							<path class="st1" d="M64.85,85.08c1.49-0.03,3.16,0.02,4.98,0.19c1.67,0.16,3.19,0.41,4.55,0.7"/>
							<path class="st1" d="M68.42,78.82c0,0-0.61-10.65,0.71-11.31c1.12,0.76,3.72,2.75,5.21,6.39c1.1,2.67,1.12,5.05,1.03,6.37
								c-0.11,0.99-0.17,2.14-0.13,3.41c0.04,1.08,0.15,2.06,0.3,2.92"/>
							<path class="st1" d="M77.79,80.21c-0.36-2-0.63-4.57-0.45-7.54c0.25-4.2,1.31-7.59,2.23-9.9c0.05-0.06,0.11-0.09,0.16-0.09
								c0.5,0.01,0.97,2.59,1.4,7.75"/>
							<path class="st1" d="M74.2,73.61c0.57,0.51,1.19,1.13,1.81,1.87c0.57,0.67,1.04,1.32,1.43,1.92"/>
							<path class="st1" d="M67.81,90.28c0,0,3.94-0.4,7.22,1.06c0,0,1.82,0.76,3.13-0.25"/>
						</g>
					</g>
					<g>
						<g>
							<path class="st1" d="M112.07,64.31c0.22-0.1,0.45-0.23,0.68-0.4c0.86-0.59,1.37-1.34,1.65-1.87c0,0,0.19-0.28,0.45-0.75
								c0.51-0.93,1.28-2.61,1.31-4.28c0,0,0.31-6.71-1.05-8.63c-0.31-0.94-0.58-1.7-0.77-2.21c-0.32-0.87-0.48-1.24-0.71-1.95
								c-0.27-0.81-0.45-1.48-0.56-1.91c-0.07-0.24-0.13-0.5-0.17-0.78c-0.18-1.07-0.1-2.01,0.03-2.73c0,0-0.75-0.24-1.34,0.18
								c-0.45,0.32-0.58,1.02-0.68,1.5c-0.02,0.08-0.03,0.14-0.04,0.19c-0.01,0.04-0.02,0.09-0.03,0.16
								c-0.06,0.34-0.09,0.66-0.1,0.83c-0.02,0.58,0.25,0.94,0.38,1.64c0.02,0.12,0.04,0.23,0.05,0.3c0.01,0.1,0.03,0.24,0.04,0.42
								c0.1,1.72-0.53,3.52-0.53,3.52c-0.83,1.56-1.72,3.61-2.34,6.1c-0.35,1.45-0.55,2.78-0.66,3.96"/>
							<path class="st1" d="M112.1,60.89c0.85,0.48,1.77,0.51,1.94,0.52c0.24-0.04,0.47-0.08,0.71-0.12"/>
							<path class="st1" d="M111.21,44.2c0.3,0.3,0.64,0.71,0.91,1.25c0.9,1.79,0.38,3.65,0.22,4.16c-0.17,0.67-0.34,1.34-0.53,2.02
								c-0.26,0.97-0.53,1.91-0.81,2.83c-0.21,0.69-0.31,1.24-0.43,1.99c-0.14,0.86-0.18,1.58-0.2,2.11"/>
							<path class="st1" d="M112.12,64.5c0.02,0.44,0.13,1.01,0.49,1.53c1.6,2.26,6.49,0.94,6.83,0.84
								c1.17-0.33,2.22-0.84,4.23-2.22c1.81-1.25,4.27-3.12,6.98-5.77c0,0,0.92-1.1-0.92-1.72c1.71-1.12,3.66-2.59,5.68-4.48
								c1.84-1.73,3.32-3.44,4.51-4.97c0.07-0.14,0.23-0.5,0.15-0.93c0,0-0.05-0.27-0.22-0.53c-0.33-0.49-1.31-0.81-2.54-0.79
								c0,0-9.5-0.13-17.65,11.29c-0.1,0.14-0.64,0.81-1.58,1.21c-0.72,0.3-1.41,0.32-1.92,0.28"/>
							<path class="st1" d="M139.73,46.25c0,0-13.81,9.24-15.22,10.6"/>
							<path class="st1" d="M129.73,57.15c-1.66-0.17-3.53-0.26-5.57-0.22c-1.87,0.04-3.59,0.19-5.13,0.4"/>
							<path class="st1" d="M126.34,49.59c0,0,1.66-12.27,0.25-13.15c-1.31,0.78-4.4,2.86-6.4,6.93c-1.47,2.99-1.71,5.75-1.74,7.28
								c0.03,1.15,0,2.49-0.17,3.96c-0.14,1.25-0.36,2.37-0.6,3.35"/>
							<path class="st1" d="M115.77,50.37c0.59-2.28,1.12-5.23,1.19-8.68c0.1-4.88-0.75-8.9-1.58-11.65
								c-0.05-0.07-0.11-0.11-0.17-0.11c-0.56-0.04-1.32,2.91-2.28,8.84"/>
							<path class="st1" d="M120.38,43.05c-0.68,0.54-1.43,1.21-2.19,2c-0.69,0.73-1.28,1.44-1.77,2.09"/>
							<path class="st1" d="M125.95,62.91c0,0-4.35-0.82-8.14,0.59c-0.38,0.1-1.09,0.24-1.96,0.08c-0.84-0.15-1.44-0.5-1.77-0.72"/>
						</g>
					</g>
					<g>
						<path class="st2" d="M103.29,58.5h5.75c1.69,0,3.07,1.37,3.07,3.07v30.51c0,1.69-1.37,3.07-3.07,3.07h-18.2
							c-1.69,0-3.07-1.37-3.07-3.07V61.56c0-1.69,1.37-3.07,3.07-3.07h2.64"/>
						<path class="st3" d="M107.16,39.72c-2.02-0.34-4.45-0.61-7.19-0.61c-2.05,0-4.49,0.15-7.19,0.61c0,4.73,0,9.46,0,14.18h14.39
							V39.72z"/>
						<line class="st3" x1="105.44" y1="42.04" x2="105.44" y2="53.95"/>
						<path class="st3" d="M94.08,39.42c0,0,0.35-3.68-1.16-5.7c0,0-1.67-1.72-0.66-3.38c0,0,1.77-1.31,6.87,0
							c5.1,1.31,5.75,3.63,6.46,8.83"/>
						<path class="st3" d="M93.43,53.85c0,0,0.15,2.62-1.82,4.49"/>
						<path class="st3" d="M106.71,53.95c0,0-0.15,2.62,1.82,4.49"/>
					</g>
				</g>
				<line class="st1" x1="90.49" y1="76.3" x2="108.76" y2="76.3"/>
				<line class="st1" x1="90.49" y1="80.74" x2="108.76" y2="80.74"/>
			</g>
			<circle class="st4" cx="77.28" cy="99.28" r="1.41"/>
			<circle class="st4" cx="70.11" cy="47.9" r="1.41"/>
			<circle class="st4" cx="108.37" cy="32.05" r="1.41"/>
			<circle class="st4" cx="131.99" cy="40.63" r="1.41"/>
			<path class="st5" d="M85.25,54L85.25,54c0-1.98-1.6-3.58-3.58-3.58v0c1.98,0,3.58-1.6,3.58-3.58h0c0,1.98,1.6,3.58,3.58,3.58v0
				C86.86,50.42,85.25,52.02,85.25,54z"/>
			<path class="st5" d="M131.29,77.49L131.29,77.49c0-1.98-1.6-3.58-3.58-3.58v0c1.98,0,3.58-1.6,3.58-3.58l0,0
				c0,1.98,1.6,3.58,3.58,3.58v0C132.89,73.91,131.29,75.51,131.29,77.49z"/>
			<g>
				<g>
					<rect x="84.99" y="33.41" class="st6" width="0.71" height="2.27"/>
					<rect x="84.99" y="38.78" class="st6" width="0.71" height="2.27"/>
				</g>
				<g>
					
						<rect x="87.67" y="36.1" transform="matrix(-1.836970e-16 1 -1 -1.836970e-16 125.2606 -50.7956)" class="st6" width="0.71" height="2.27"/>
					
						<rect x="82.3" y="36.1" transform="matrix(-1.836970e-16 1 -1 -1.836970e-16 119.8846 -45.4196)" class="st6" width="0.71" height="2.27"/>
				</g>
			</g>
			<g>
				<g>
					<rect x="125.6" y="23.78" class="st6" width="0.71" height="2.27"/>
					<rect x="125.6" y="29.16" class="st6" width="0.71" height="2.27"/>
				</g>
				<g>
					
						<rect x="128.28" y="26.47" transform="matrix(-1.836970e-16 1 -1 -1.836970e-16 156.2417 -101.0343)" class="st6" width="0.71" height="2.27"/>
					
						<rect x="122.91" y="26.47" transform="matrix(-1.836970e-16 1 -1 -1.836970e-16 150.8658 -95.6583)" class="st6" width="0.71" height="2.27"/>
				</g>
			</g>
			<g>
				<g>
					<rect x="61.22" y="62.13" class="st6" width="0.71" height="2.27"/>
					<rect x="61.22" y="67.51" class="st6" width="0.71" height="2.27"/>
				</g>
				<g>
					
						<rect x="63.91" y="64.82" transform="matrix(-1.836970e-16 1 -1 -1.836970e-16 130.2201 1.6894)" class="st6" width="0.71" height="2.27"/>
					
						<rect x="58.54" y="64.82" transform="matrix(-1.836970e-16 1 -1 -1.836970e-16 124.8441 7.0653)" class="st6" width="0.71" height="2.27"/>
				</g>
			</g>
			<g>
				<g>
					<rect x="117.66" y="72.63" class="st6" width="0.71" height="2.27"/>
					<rect x="117.66" y="78.01" class="st6" width="0.71" height="2.27"/>
				</g>
				<g>
					
						<rect x="120.35" y="75.32" transform="matrix(-1.836970e-16 1 -1 -1.836970e-16 197.1545 -44.246)" class="st6" width="0.71" height="2.27"/>
					
						<rect x="114.97" y="75.32" transform="matrix(-1.836970e-16 1 -1 -1.836970e-16 191.7786 -38.8701)" class="st6" width="0.71" height="2.27"/>
				</g>
			</g>
		</g>
		<path id="SVGID_x5F_1_x5F_" class="st7" d="M60.31,56.46c0-25.43,19.21-46.04,42.91-46.04s42.91,20.61,42.91,46.04"/>
		<text>		<textPath  xlink:href="#SVGID_x5F_1_x5F_" startOffset="0%">
<tspan  style="fill:#04BC5B; font-family:'CopperplateGothic-Light'; font-size:8.5937px; letter-spacing:43;">NATURAL BEAUTY SKINCARE</tspan>		</textPath>
</text>
	</g>
	<g>
		<text transform="matrix(0.8827 0 0 1 37.709 124.0115)" class="st8 st9 st10 st11">Precious</text>
	</g>
	<g>
		<g>
			<g>
				<path class="st12" d="M50.68,137.95v-0.13c0.16-0.01,0.28-0.03,0.37-0.05c0.08-0.03,0.14-0.08,0.17-0.16
					c0.03-0.08,0.04-0.2,0.04-0.36v-3.35c0-0.17-0.01-0.29-0.04-0.37s-0.08-0.13-0.17-0.16c-0.08-0.03-0.21-0.05-0.37-0.05v-0.13
					c0.1,0,0.23,0.01,0.39,0.01c0.16,0,0.34,0.01,0.52,0.01c0.17,0,0.33,0,0.5-0.01c0.16,0,0.3-0.01,0.41-0.01v0.13
					c-0.16,0-0.29,0.02-0.37,0.05c-0.08,0.03-0.14,0.08-0.17,0.16s-0.04,0.2-0.04,0.37v3.35c0,0.16,0.01,0.28,0.04,0.36
					c0.03,0.08,0.08,0.14,0.17,0.16c0.08,0.03,0.21,0.05,0.37,0.05v0.13c-0.11-0.01-0.25-0.01-0.41-0.02c-0.16,0-0.33,0-0.5,0
					c-0.19,0-0.36,0-0.52,0C50.91,137.93,50.78,137.94,50.68,137.95z M51.68,135.61v-0.14h2.83v0.14H51.68z M53.67,137.95v-0.13
					c0.16-0.01,0.29-0.03,0.37-0.05c0.08-0.03,0.14-0.08,0.17-0.16c0.03-0.08,0.04-0.2,0.04-0.36v-3.35c0-0.17-0.01-0.29-0.04-0.37
					c-0.03-0.08-0.08-0.13-0.17-0.16s-0.21-0.05-0.37-0.05v-0.13c0.11,0,0.25,0.01,0.42,0.01c0.17,0,0.33,0.01,0.49,0.01
					c0.19,0,0.36,0,0.52-0.01c0.16,0,0.29-0.01,0.39-0.01v0.13c-0.16,0-0.29,0.02-0.37,0.05s-0.14,0.08-0.17,0.16
					c-0.03,0.08-0.04,0.2-0.04,0.37v3.35c0,0.16,0.01,0.28,0.04,0.36c0.03,0.08,0.08,0.14,0.17,0.16c0.08,0.03,0.21,0.05,0.37,0.05
					v0.13c-0.1-0.01-0.23-0.01-0.39-0.02c-0.16,0-0.34,0-0.52,0c-0.16,0-0.33,0-0.49,0C53.92,137.93,53.78,137.94,53.67,137.95z"/>
				<path class="st12" d="M58.05,134.38c0.42,0,0.75,0.12,0.98,0.36c0.24,0.24,0.35,0.62,0.35,1.12h-2.53l-0.01-0.13h1.85
					c0.01-0.22-0.01-0.42-0.06-0.61c-0.05-0.19-0.12-0.34-0.23-0.45s-0.23-0.17-0.4-0.17c-0.22,0-0.41,0.1-0.58,0.31
					s-0.27,0.54-0.3,0.99l0.02,0.03c-0.01,0.07-0.02,0.14-0.02,0.22c0,0.08-0.01,0.16-0.01,0.24c0,0.31,0.05,0.57,0.16,0.79
					c0.1,0.22,0.24,0.39,0.41,0.5c0.17,0.12,0.34,0.17,0.53,0.17c0.14,0,0.28-0.02,0.41-0.06c0.13-0.04,0.25-0.11,0.36-0.21
					s0.21-0.23,0.29-0.4l0.14,0.05c-0.05,0.15-0.14,0.29-0.26,0.43s-0.27,0.25-0.45,0.34c-0.18,0.09-0.39,0.13-0.63,0.13
					c-0.34,0-0.64-0.07-0.88-0.22c-0.25-0.15-0.43-0.35-0.57-0.62s-0.2-0.57-0.2-0.91c0-0.4,0.07-0.74,0.2-1.02
					c0.13-0.29,0.32-0.51,0.57-0.66C57.45,134.45,57.73,134.38,58.05,134.38z"/>
				<path class="st12" d="M61.26,137.99c-0.2,0-0.37-0.03-0.51-0.1c-0.14-0.07-0.25-0.17-0.33-0.29c-0.07-0.13-0.11-0.27-0.11-0.44
					c0-0.2,0.05-0.36,0.15-0.49s0.22-0.23,0.38-0.3c0.15-0.08,0.31-0.14,0.48-0.19s0.33-0.1,0.48-0.15c0.15-0.05,0.28-0.1,0.38-0.17
					c0.1-0.06,0.15-0.15,0.15-0.25v-0.42c0-0.19-0.03-0.33-0.09-0.43c-0.06-0.1-0.14-0.17-0.24-0.2c-0.1-0.03-0.21-0.05-0.34-0.05
					c-0.12,0-0.25,0.02-0.38,0.05c-0.14,0.03-0.24,0.1-0.33,0.2c0.09,0.02,0.17,0.06,0.24,0.13s0.1,0.16,0.1,0.28
					c0,0.11-0.04,0.2-0.11,0.27c-0.08,0.06-0.17,0.1-0.29,0.1c-0.14,0-0.24-0.04-0.3-0.12s-0.1-0.18-0.1-0.28
					c0-0.12,0.03-0.21,0.09-0.28c0.06-0.07,0.14-0.14,0.24-0.2c0.11-0.07,0.25-0.13,0.43-0.19s0.37-0.08,0.59-0.08
					c0.2,0,0.36,0.02,0.5,0.06c0.14,0.04,0.25,0.1,0.34,0.19c0.12,0.11,0.21,0.24,0.24,0.4c0.04,0.16,0.06,0.34,0.06,0.56v1.88
					c0,0.11,0.02,0.19,0.05,0.24c0.04,0.05,0.09,0.07,0.17,0.07c0.05,0,0.1-0.01,0.15-0.03s0.1-0.06,0.17-0.11l0.08,0.12
					c-0.1,0.07-0.2,0.13-0.29,0.18c-0.09,0.05-0.21,0.07-0.37,0.07c-0.14,0-0.25-0.02-0.34-0.07c-0.09-0.04-0.16-0.11-0.2-0.2
					s-0.07-0.2-0.07-0.33c-0.13,0.2-0.28,0.35-0.46,0.45C61.69,137.95,61.49,137.99,61.26,137.99z M61.52,137.72
					c0.16,0,0.3-0.04,0.44-0.13c0.14-0.08,0.26-0.21,0.37-0.38v-1.32c-0.06,0.08-0.14,0.14-0.25,0.19c-0.11,0.05-0.23,0.1-0.36,0.16
					s-0.25,0.11-0.37,0.18c-0.12,0.07-0.21,0.16-0.29,0.27s-0.11,0.26-0.11,0.44c0,0.18,0.05,0.32,0.15,0.43
					C61.2,137.67,61.34,137.72,61.52,137.72z"/>
				<path class="st12" d="M65.25,132.65v4.67c0,0.19,0.04,0.32,0.12,0.38s0.22,0.1,0.42,0.1v0.14c-0.08,0-0.2-0.01-0.37-0.02
					s-0.33-0.01-0.5-0.01c-0.16,0-0.33,0-0.49,0.01s-0.29,0.01-0.37,0.02v-0.14c0.2,0,0.34-0.03,0.42-0.1s0.13-0.2,0.13-0.38v-3.86
					c0-0.2-0.04-0.35-0.11-0.45c-0.08-0.1-0.22-0.14-0.43-0.14v-0.14c0.15,0.01,0.3,0.02,0.44,0.02c0.14,0,0.27-0.01,0.4-0.02
					S65.15,132.69,65.25,132.65z"/>
				<path class="st12" d="M67.62,133.35v1.13h1.06v0.14h-1.06v2.61c0,0.21,0.04,0.36,0.12,0.45c0.08,0.08,0.19,0.13,0.34,0.13
					s0.27-0.05,0.37-0.17s0.2-0.3,0.27-0.56l0.14,0.03c-0.05,0.26-0.14,0.48-0.28,0.66c-0.14,0.18-0.36,0.27-0.65,0.27
					c-0.16,0-0.3-0.02-0.4-0.06s-0.2-0.09-0.28-0.17c-0.1-0.1-0.18-0.23-0.22-0.37c-0.04-0.14-0.06-0.33-0.06-0.57v-2.26h-0.69
					v-0.14h0.69v-1.03c0.12,0,0.23-0.01,0.34-0.03C67.43,133.4,67.53,133.38,67.62,133.35z"/>
				<path class="st12" d="M70.44,132.66v2.53c0.12-0.31,0.3-0.52,0.52-0.63c0.22-0.12,0.45-0.17,0.7-0.17
					c0.18,0,0.33,0.02,0.45,0.07s0.22,0.11,0.3,0.19c0.09,0.09,0.16,0.2,0.19,0.34s0.06,0.32,0.06,0.55v1.8
					c0,0.19,0.04,0.32,0.13,0.38s0.22,0.1,0.42,0.1v0.14c-0.08,0-0.21-0.01-0.37-0.02s-0.33-0.01-0.49-0.01
					c-0.16,0-0.31,0-0.46,0.01s-0.26,0.01-0.34,0.02v-0.14c0.17,0,0.29-0.03,0.37-0.1s0.11-0.2,0.11-0.38v-1.95
					c0-0.14-0.01-0.27-0.04-0.38c-0.02-0.12-0.08-0.21-0.16-0.28c-0.08-0.07-0.21-0.11-0.38-0.11c-0.2,0-0.37,0.05-0.52,0.16
					s-0.27,0.25-0.35,0.43s-0.13,0.4-0.13,0.63v1.51c0,0.19,0.04,0.32,0.11,0.38c0.07,0.07,0.19,0.1,0.37,0.1v0.14
					c-0.08,0-0.19-0.01-0.34-0.02c-0.15-0.01-0.3-0.01-0.46-0.01c-0.16,0-0.32,0-0.49,0.01s-0.29,0.01-0.37,0.02v-0.14
					c0.2,0,0.34-0.03,0.42-0.1s0.12-0.2,0.12-0.38v-3.85c0-0.2-0.04-0.35-0.11-0.45c-0.08-0.1-0.22-0.14-0.43-0.14v-0.14
					c0.15,0.01,0.3,0.02,0.44,0.02c0.14,0,0.27-0.01,0.4-0.02C70.22,132.72,70.33,132.69,70.44,132.66z"/>
				<path class="st12" d="M77.91,133.21c0.18,0,0.33,0.02,0.45,0.06c0.12,0.04,0.22,0.09,0.29,0.15c0.06,0.04,0.11,0.09,0.15,0.15
					s0.07,0.11,0.09,0.16s0.03,0.11,0.03,0.16c0,0.11-0.04,0.2-0.13,0.26c-0.08,0.06-0.18,0.09-0.28,0.09
					c-0.1,0-0.18-0.03-0.26-0.09c-0.08-0.06-0.11-0.14-0.11-0.25c0-0.1,0.04-0.18,0.11-0.25c0.07-0.07,0.16-0.11,0.27-0.12
					c-0.02-0.06-0.08-0.11-0.18-0.15c-0.1-0.04-0.22-0.06-0.37-0.06c-0.24,0-0.44,0.07-0.6,0.21c-0.16,0.14-0.23,0.34-0.23,0.6
					c0,0.13,0.03,0.25,0.08,0.38c0.05,0.13,0.15,0.26,0.29,0.38c0.08-0.01,0.16-0.02,0.25-0.03s0.15-0.01,0.19-0.01
					c0.09,0,0.15,0.01,0.21,0.04c0.05,0.03,0.08,0.07,0.08,0.12c0,0.04-0.02,0.07-0.05,0.09c-0.04,0.02-0.08,0.03-0.15,0.03
					c-0.09,0-0.19-0.02-0.29-0.06s-0.18-0.07-0.24-0.09c-0.28,0.08-0.5,0.2-0.67,0.38c-0.17,0.17-0.26,0.42-0.26,0.73
					c0,0.31,0.09,0.57,0.26,0.79c0.17,0.22,0.4,0.38,0.69,0.5c0.29,0.11,0.61,0.17,0.97,0.17c0.25,0,0.49-0.03,0.72-0.08
					c0.23-0.06,0.43-0.14,0.6-0.25c0.17-0.11,0.31-0.24,0.41-0.39c0.1-0.15,0.15-0.32,0.15-0.52c0-0.09-0.02-0.19-0.06-0.33
					s-0.12-0.26-0.24-0.39c-0.12-0.13-0.3-0.23-0.55-0.3l0.09-0.07c0.35,0.1,0.6,0.26,0.74,0.48c0.15,0.22,0.22,0.46,0.22,0.73
					c0,0.27-0.09,0.53-0.26,0.78c-0.17,0.25-0.42,0.45-0.74,0.6c-0.32,0.16-0.72,0.23-1.18,0.23c-0.31,0-0.6-0.04-0.88-0.12
					c-0.28-0.08-0.53-0.19-0.74-0.33c-0.21-0.15-0.38-0.32-0.51-0.53c-0.12-0.21-0.19-0.44-0.19-0.7c0-0.24,0.05-0.45,0.15-0.62
					c0.1-0.17,0.22-0.32,0.37-0.43c0.15-0.11,0.3-0.2,0.44-0.26c0.15-0.06,0.27-0.1,0.36-0.12c-0.16-0.07-0.29-0.15-0.4-0.24
					c-0.11-0.09-0.19-0.19-0.24-0.3c-0.05-0.11-0.08-0.22-0.08-0.33c0-0.11,0.03-0.21,0.08-0.31c0.05-0.1,0.13-0.19,0.23-0.27
					s0.23-0.14,0.38-0.19S77.71,133.21,77.91,133.21z M80.51,133.07c0.3,0,0.54,0.08,0.74,0.24c0.2,0.16,0.3,0.38,0.3,0.67
					c0,0.15-0.03,0.29-0.09,0.41c-0.06,0.12-0.14,0.22-0.24,0.31c-0.1,0.09-0.22,0.17-0.35,0.22c-0.11,0.05-0.25,0.1-0.43,0.16
					c-0.18,0.06-0.37,0.12-0.57,0.18c-0.2,0.06-0.4,0.12-0.58,0.17c-0.18,0.06-0.33,0.11-0.45,0.15c-0.18,0.06-0.33,0.14-0.45,0.23
					c-0.12,0.09-0.18,0.21-0.18,0.35c0,0.12,0.04,0.22,0.11,0.3c0.07,0.08,0.16,0.14,0.26,0.18c0.1,0.04,0.2,0.06,0.29,0.06
					c0.04,0,0.1-0.01,0.16-0.02c0.06-0.01,0.12-0.03,0.18-0.05c0.05-0.02,0.08-0.05,0.09-0.08c-0.08-0.01-0.15-0.05-0.23-0.1
					c-0.07-0.05-0.11-0.13-0.11-0.25c0-0.11,0.04-0.19,0.11-0.26c0.08-0.06,0.17-0.09,0.28-0.09c0.11,0,0.21,0.03,0.28,0.1
					s0.1,0.16,0.1,0.26c0,0.13-0.04,0.23-0.13,0.32s-0.2,0.15-0.33,0.2s-0.26,0.06-0.39,0.06c-0.13,0-0.27-0.03-0.41-0.08
					c-0.14-0.05-0.25-0.14-0.34-0.25c-0.09-0.11-0.14-0.27-0.14-0.46c0-0.16,0.04-0.3,0.11-0.42c0.07-0.12,0.18-0.23,0.33-0.32
					s0.33-0.18,0.54-0.24c0.14-0.04,0.32-0.09,0.52-0.15c0.21-0.05,0.42-0.11,0.63-0.18c0.22-0.06,0.41-0.13,0.59-0.21
					c0.24-0.1,0.4-0.21,0.49-0.32s0.13-0.22,0.13-0.33c0-0.13-0.04-0.25-0.11-0.35s-0.18-0.18-0.3-0.24s-0.26-0.09-0.41-0.09
					c-0.06,0-0.1,0-0.14,0.01c-0.04,0.01-0.06,0.02-0.07,0.05c0.07,0.03,0.12,0.08,0.15,0.13c0.03,0.06,0.05,0.12,0.05,0.18
					c0,0.09-0.04,0.17-0.12,0.24c-0.08,0.06-0.17,0.09-0.28,0.09c-0.09,0-0.18-0.03-0.26-0.08c-0.08-0.06-0.12-0.14-0.12-0.25
					c0-0.12,0.04-0.21,0.13-0.28s0.19-0.12,0.31-0.15S80.4,133.07,80.51,133.07z"/>
				<path class="st12" d="M84.4,133.17c0.1,0,0.23,0.01,0.39,0.01c0.16,0,0.32,0.01,0.48,0.01c0.22,0,0.44,0,0.64-0.01
					c0.21,0,0.35-0.01,0.44-0.01c0.5,0,0.88,0.1,1.13,0.3s0.38,0.45,0.38,0.76c0,0.16-0.03,0.31-0.1,0.46
					c-0.07,0.15-0.18,0.29-0.34,0.41s-0.37,0.22-0.64,0.3v0.01c0.38,0.04,0.67,0.13,0.88,0.25c0.21,0.12,0.36,0.27,0.45,0.44
					c0.09,0.17,0.13,0.34,0.13,0.53c0,0.26-0.07,0.48-0.2,0.68c-0.14,0.2-0.33,0.35-0.59,0.46c-0.26,0.11-0.57,0.17-0.92,0.17
					c-0.1,0-0.26,0-0.47-0.01s-0.46-0.01-0.76-0.01c-0.17,0-0.33,0-0.49,0c-0.16,0-0.29,0.01-0.39,0.02v-0.13
					c0.16-0.01,0.28-0.03,0.37-0.05c0.08-0.03,0.14-0.08,0.17-0.16c0.03-0.08,0.04-0.2,0.04-0.36v-3.35c0-0.17-0.01-0.29-0.04-0.37
					s-0.08-0.13-0.17-0.16c-0.08-0.03-0.21-0.05-0.37-0.05V133.17z M86.18,133.3c-0.22,0-0.36,0.04-0.43,0.12
					c-0.07,0.08-0.1,0.23-0.1,0.47v3.35c0,0.16,0.01,0.28,0.04,0.36s0.08,0.13,0.16,0.16c0.08,0.03,0.19,0.04,0.34,0.04
					c0.47,0,0.81-0.1,1.02-0.31c0.21-0.2,0.32-0.5,0.32-0.87c0-0.35-0.1-0.61-0.3-0.8c-0.2-0.19-0.52-0.28-0.98-0.28h-0.74v-0.12
					h0.62c0.28,0,0.5-0.05,0.65-0.15s0.26-0.24,0.31-0.41s0.09-0.35,0.09-0.54c0-0.33-0.08-0.58-0.23-0.75
					C86.79,133.39,86.53,133.3,86.18,133.3z"/>
				<path class="st12" d="M90.81,134.38c0.42,0,0.75,0.12,0.98,0.36c0.24,0.24,0.35,0.62,0.35,1.12h-2.53l-0.01-0.13h1.85
					c0.01-0.22-0.01-0.42-0.06-0.61c-0.05-0.19-0.12-0.34-0.23-0.45s-0.23-0.17-0.4-0.17c-0.22,0-0.41,0.1-0.58,0.31
					s-0.27,0.54-0.3,0.99l0.02,0.03c-0.01,0.07-0.02,0.14-0.02,0.22c0,0.08-0.01,0.16-0.01,0.24c0,0.31,0.05,0.57,0.16,0.79
					c0.1,0.22,0.24,0.39,0.41,0.5c0.17,0.12,0.34,0.17,0.53,0.17c0.14,0,0.28-0.02,0.41-0.06c0.13-0.04,0.25-0.11,0.36-0.21
					s0.21-0.23,0.29-0.4l0.14,0.05c-0.05,0.15-0.14,0.29-0.26,0.43s-0.27,0.25-0.45,0.34c-0.18,0.09-0.39,0.13-0.63,0.13
					c-0.34,0-0.64-0.07-0.88-0.22c-0.25-0.15-0.43-0.35-0.57-0.62s-0.2-0.57-0.2-0.91c0-0.4,0.07-0.74,0.2-1.02
					c0.13-0.29,0.32-0.51,0.57-0.66C90.2,134.45,90.49,134.38,90.81,134.38z"/>
				<path class="st12" d="M94.02,137.99c-0.2,0-0.37-0.03-0.51-0.1c-0.14-0.07-0.25-0.17-0.33-0.29c-0.07-0.13-0.11-0.27-0.11-0.44
					c0-0.2,0.05-0.36,0.15-0.49s0.22-0.23,0.38-0.3c0.15-0.08,0.31-0.14,0.48-0.19s0.33-0.1,0.48-0.15c0.15-0.05,0.28-0.1,0.38-0.17
					c0.1-0.06,0.15-0.15,0.15-0.25v-0.42c0-0.19-0.03-0.33-0.09-0.43c-0.06-0.1-0.14-0.17-0.24-0.2c-0.1-0.03-0.21-0.05-0.34-0.05
					c-0.12,0-0.25,0.02-0.38,0.05c-0.14,0.03-0.24,0.1-0.33,0.2c0.09,0.02,0.17,0.06,0.24,0.13s0.1,0.16,0.1,0.28
					c0,0.11-0.04,0.2-0.11,0.27c-0.08,0.06-0.17,0.1-0.29,0.1c-0.14,0-0.24-0.04-0.3-0.12s-0.1-0.18-0.1-0.28
					c0-0.12,0.03-0.21,0.09-0.28c0.06-0.07,0.14-0.14,0.24-0.2c0.11-0.07,0.25-0.13,0.43-0.19s0.37-0.08,0.59-0.08
					c0.2,0,0.36,0.02,0.5,0.06c0.14,0.04,0.25,0.1,0.34,0.19c0.12,0.11,0.21,0.24,0.24,0.4c0.04,0.16,0.06,0.34,0.06,0.56v1.88
					c0,0.11,0.02,0.19,0.05,0.24c0.04,0.05,0.09,0.07,0.17,0.07c0.05,0,0.1-0.01,0.15-0.03s0.1-0.06,0.17-0.11l0.08,0.12
					c-0.1,0.07-0.2,0.13-0.29,0.18c-0.09,0.05-0.21,0.07-0.37,0.07c-0.14,0-0.25-0.02-0.34-0.07c-0.09-0.04-0.16-0.11-0.2-0.2
					s-0.07-0.2-0.07-0.33c-0.13,0.2-0.28,0.35-0.46,0.45C94.45,137.95,94.24,137.99,94.02,137.99z M94.28,137.72
					c0.16,0,0.3-0.04,0.44-0.13c0.14-0.08,0.26-0.21,0.37-0.38v-1.32c-0.06,0.08-0.14,0.14-0.25,0.19c-0.11,0.05-0.23,0.1-0.36,0.16
					s-0.25,0.11-0.37,0.18c-0.12,0.07-0.21,0.16-0.29,0.27s-0.11,0.26-0.11,0.44c0,0.18,0.05,0.32,0.15,0.43
					C93.96,137.67,94.1,137.72,94.28,137.72z"/>
				<path class="st12" d="M100.12,134.4v2.82c0,0.2,0.04,0.35,0.12,0.45s0.22,0.15,0.43,0.15v0.14c-0.15-0.01-0.3-0.02-0.44-0.02
					c-0.14,0-0.27,0.01-0.4,0.02c-0.13,0.01-0.24,0.04-0.35,0.07v-0.8c-0.12,0.29-0.29,0.5-0.5,0.62c-0.22,0.12-0.44,0.19-0.67,0.19
					c-0.17,0-0.31-0.02-0.44-0.07c-0.12-0.04-0.23-0.11-0.31-0.19c-0.09-0.09-0.15-0.21-0.19-0.35c-0.03-0.14-0.05-0.32-0.05-0.53
					v-1.69c0-0.2-0.04-0.35-0.11-0.45s-0.22-0.14-0.43-0.14v-0.14c0.15,0.01,0.3,0.02,0.44,0.02c0.14,0,0.27-0.01,0.4-0.02
					s0.24-0.04,0.35-0.07v2.65c0,0.14,0.01,0.27,0.03,0.39c0.02,0.12,0.07,0.21,0.14,0.28c0.08,0.07,0.2,0.11,0.37,0.11
					c0.19,0,0.35-0.05,0.5-0.16c0.15-0.11,0.26-0.25,0.34-0.44s0.13-0.39,0.13-0.62v-1.4c0-0.2-0.04-0.35-0.11-0.45
					s-0.22-0.14-0.43-0.14v-0.14c0.15,0.01,0.3,0.02,0.44,0.02c0.14,0,0.27-0.01,0.4-0.02S100.02,134.43,100.12,134.4z"/>
				<path class="st12" d="M102.49,133.35v1.13h1.06v0.14h-1.06v2.61c0,0.21,0.04,0.36,0.12,0.45c0.08,0.08,0.19,0.13,0.34,0.13
					s0.27-0.05,0.37-0.17s0.2-0.3,0.27-0.56l0.14,0.03c-0.05,0.26-0.14,0.48-0.28,0.66c-0.14,0.18-0.36,0.27-0.65,0.27
					c-0.16,0-0.3-0.02-0.4-0.06s-0.2-0.09-0.28-0.17c-0.1-0.1-0.18-0.23-0.22-0.37c-0.04-0.14-0.06-0.33-0.06-0.57v-2.26h-0.69
					v-0.14h0.69v-1.03c0.12,0,0.23-0.01,0.34-0.03C102.3,133.4,102.4,133.38,102.49,133.35z"/>
				<path class="st12" d="M107.51,134.47v0.14c-0.09,0.01-0.17,0.05-0.25,0.11s-0.15,0.19-0.21,0.36l-1.17,2.9h-0.12l-1.32-2.99
					c-0.09-0.18-0.18-0.28-0.27-0.32c-0.09-0.04-0.16-0.06-0.22-0.06v-0.14c0.1,0.01,0.21,0.02,0.33,0.03
					c0.11,0.01,0.24,0.01,0.37,0.01c0.15,0,0.3,0,0.47-0.01s0.32-0.02,0.46-0.03v0.14c-0.12,0-0.23,0.01-0.32,0.02
					c-0.09,0.02-0.15,0.06-0.18,0.14s0,0.21,0.09,0.4l0.88,2.06l-0.04,0.01l0.82-2.01c0.06-0.15,0.09-0.27,0.08-0.35
					c-0.01-0.09-0.06-0.15-0.15-0.2s-0.21-0.07-0.39-0.08v-0.14c0.09,0,0.16,0.01,0.22,0.01c0.06,0,0.12,0,0.18,0.01
					c0.06,0,0.13,0,0.2,0c0.11,0,0.21,0,0.3-0.01C107.35,134.48,107.43,134.47,107.51,134.47z M105.87,137.98l-0.24,0.59
					c-0.05,0.11-0.1,0.21-0.15,0.28c-0.05,0.08-0.1,0.14-0.16,0.19c-0.08,0.07-0.17,0.11-0.27,0.14c-0.1,0.02-0.2,0.04-0.29,0.04
					c-0.09,0-0.17-0.02-0.25-0.05c-0.07-0.03-0.13-0.08-0.18-0.14c-0.04-0.06-0.06-0.13-0.06-0.22c0-0.11,0.03-0.19,0.1-0.26
					s0.16-0.1,0.28-0.1c0.1,0,0.19,0.03,0.26,0.08c0.07,0.05,0.11,0.13,0.11,0.24c0,0.08-0.02,0.14-0.06,0.19s-0.08,0.09-0.14,0.12
					c0.01,0,0.02,0.01,0.03,0.01c0.01,0,0.01,0,0.02,0c0.13,0,0.24-0.04,0.34-0.12c0.1-0.08,0.19-0.22,0.26-0.4l0.26-0.63
					L105.87,137.98z"/>
				<path class="st12" d="M110.28,133.17c0.1,0,0.23,0.01,0.39,0.01c0.16,0,0.32,0.01,0.48,0.01c0.22,0,0.44,0,0.64-0.01
					c0.21,0,0.35-0.01,0.44-0.01c0.58,0,1.01,0.12,1.3,0.37c0.29,0.25,0.43,0.57,0.43,0.96c0,0.16-0.03,0.33-0.09,0.51
					s-0.16,0.34-0.3,0.49c-0.14,0.15-0.33,0.27-0.58,0.37c-0.24,0.09-0.55,0.14-0.92,0.14h-0.69v-0.14h0.62
					c0.34,0,0.6-0.06,0.78-0.18c0.18-0.12,0.3-0.28,0.36-0.48s0.1-0.41,0.1-0.64c0-0.43-0.09-0.75-0.27-0.96
					c-0.18-0.21-0.49-0.32-0.92-0.32c-0.22,0-0.36,0.04-0.43,0.12c-0.07,0.08-0.1,0.23-0.1,0.47v3.35c0,0.16,0.02,0.28,0.05,0.36
					c0.04,0.08,0.11,0.14,0.21,0.16c0.1,0.03,0.26,0.05,0.46,0.05v0.13c-0.12-0.01-0.28-0.01-0.47-0.02c-0.19,0-0.38,0-0.58,0
					c-0.19,0-0.36,0-0.52,0c-0.16,0-0.29,0.01-0.39,0.02v-0.13c0.16-0.01,0.28-0.03,0.37-0.05c0.08-0.03,0.14-0.08,0.17-0.16
					c0.03-0.08,0.04-0.2,0.04-0.36v-3.35c0-0.17-0.01-0.29-0.04-0.37s-0.08-0.13-0.17-0.16c-0.08-0.03-0.21-0.05-0.37-0.05V133.17z"
					/>
				<path class="st12" d="M116.91,134.38c0.13,0,0.24,0.02,0.34,0.07c0.1,0.05,0.17,0.11,0.23,0.19c0.05,0.08,0.08,0.17,0.08,0.27
					c0,0.11-0.04,0.21-0.11,0.3c-0.07,0.09-0.17,0.13-0.3,0.13c-0.1,0-0.19-0.03-0.26-0.09c-0.08-0.06-0.11-0.15-0.11-0.26
					c0-0.09,0.03-0.16,0.08-0.22c0.05-0.06,0.11-0.11,0.17-0.15c-0.03-0.04-0.08-0.07-0.15-0.07c-0.15,0-0.28,0.04-0.41,0.12
					c-0.12,0.08-0.23,0.19-0.31,0.32c-0.09,0.13-0.15,0.27-0.2,0.42s-0.07,0.28-0.07,0.41v1.43c0,0.22,0.07,0.37,0.2,0.44
					c0.14,0.07,0.32,0.11,0.55,0.11v0.14c-0.11,0-0.26-0.01-0.47-0.02c-0.2-0.01-0.41-0.01-0.64-0.01c-0.16,0-0.32,0-0.48,0.01
					c-0.16,0.01-0.28,0.01-0.36,0.02v-0.14c0.2,0,0.34-0.03,0.42-0.1c0.08-0.07,0.12-0.2,0.12-0.38v-2.11c0-0.2-0.04-0.35-0.11-0.45
					c-0.08-0.1-0.22-0.14-0.43-0.14v-0.14c0.15,0.01,0.3,0.02,0.44,0.02c0.14,0,0.27-0.01,0.4-0.02s0.24-0.04,0.35-0.07v0.84
					c0.05-0.13,0.13-0.26,0.23-0.4s0.22-0.24,0.35-0.33C116.59,134.42,116.74,134.38,116.91,134.38z"/>
				<path class="st12" d="M119.93,134.38c0.31,0,0.58,0.06,0.82,0.19s0.44,0.32,0.58,0.59c0.15,0.27,0.22,0.62,0.22,1.05
					c0,0.43-0.07,0.78-0.22,1.05c-0.15,0.27-0.34,0.46-0.58,0.59s-0.52,0.19-0.82,0.19c-0.3,0-0.57-0.06-0.82-0.19
					s-0.44-0.32-0.59-0.59c-0.15-0.27-0.22-0.62-0.22-1.05c0-0.43,0.07-0.78,0.22-1.05c0.15-0.27,0.34-0.47,0.59-0.59
					S119.63,134.38,119.93,134.38z M119.93,134.51c-0.27,0-0.5,0.13-0.67,0.4c-0.17,0.27-0.26,0.7-0.26,1.3
					c0,0.6,0.09,1.04,0.26,1.3c0.17,0.26,0.4,0.4,0.67,0.4s0.5-0.13,0.67-0.4s0.26-0.7,0.26-1.3c0-0.6-0.09-1.04-0.26-1.3
					S120.2,134.51,119.93,134.51z"/>
				<path class="st12" d="M124.16,134.38c0.21,0,0.41,0.05,0.59,0.14c0.18,0.09,0.31,0.26,0.37,0.49l-0.09,0.07
					c-0.07-0.19-0.17-0.33-0.31-0.41s-0.31-0.13-0.5-0.13c-0.28,0-0.52,0.14-0.71,0.41c-0.19,0.28-0.28,0.7-0.28,1.27
					c0,0.36,0.04,0.67,0.11,0.91c0.07,0.24,0.18,0.42,0.33,0.54s0.32,0.18,0.53,0.18c0.2,0,0.38-0.08,0.54-0.24
					c0.16-0.16,0.26-0.4,0.29-0.71l0.09,0.09c-0.04,0.34-0.15,0.61-0.35,0.79s-0.45,0.28-0.78,0.28c-0.3,0-0.55-0.07-0.78-0.2
					c-0.22-0.13-0.39-0.34-0.51-0.61c-0.12-0.27-0.18-0.61-0.18-1.02c0-0.41,0.08-0.75,0.23-1.02c0.15-0.27,0.35-0.48,0.59-0.61
					S123.87,134.38,124.16,134.38z M125.66,132.65v4.56c0,0.2,0.04,0.35,0.12,0.45c0.08,0.1,0.22,0.15,0.43,0.15v0.14
					c-0.15-0.01-0.3-0.02-0.44-0.02c-0.14,0-0.27,0.01-0.4,0.02s-0.24,0.04-0.35,0.07v-4.56c0-0.2-0.04-0.35-0.11-0.45
					c-0.08-0.1-0.22-0.14-0.43-0.14v-0.14c0.15,0.01,0.3,0.02,0.44,0.02c0.14,0,0.27-0.01,0.4-0.02
					C125.44,132.71,125.56,132.69,125.66,132.65z"/>
				<path class="st12" d="M130.12,134.4v2.82c0,0.2,0.04,0.35,0.12,0.45s0.22,0.15,0.43,0.15v0.14c-0.15-0.01-0.3-0.02-0.44-0.02
					c-0.14,0-0.27,0.01-0.4,0.02c-0.13,0.01-0.24,0.04-0.35,0.07v-0.8c-0.12,0.29-0.29,0.5-0.5,0.62c-0.22,0.12-0.44,0.19-0.67,0.19
					c-0.17,0-0.31-0.02-0.44-0.07c-0.12-0.04-0.23-0.11-0.31-0.19c-0.09-0.09-0.15-0.21-0.19-0.35c-0.03-0.14-0.05-0.32-0.05-0.53
					v-1.69c0-0.2-0.04-0.35-0.11-0.45s-0.22-0.14-0.43-0.14v-0.14c0.15,0.01,0.3,0.02,0.44,0.02c0.14,0,0.27-0.01,0.4-0.02
					s0.24-0.04,0.35-0.07v2.65c0,0.14,0.01,0.27,0.03,0.39c0.02,0.12,0.07,0.21,0.14,0.28c0.08,0.07,0.2,0.11,0.37,0.11
					c0.19,0,0.35-0.05,0.5-0.16c0.15-0.11,0.26-0.25,0.34-0.44s0.13-0.39,0.13-0.62v-1.4c0-0.2-0.04-0.35-0.11-0.45
					s-0.22-0.14-0.43-0.14v-0.14c0.15,0.01,0.3,0.02,0.44,0.02c0.14,0,0.27-0.01,0.4-0.02S130.02,134.43,130.12,134.4z"/>
				<path class="st12" d="M133.13,134.38c0.15,0,0.3,0.02,0.44,0.05c0.14,0.04,0.27,0.09,0.39,0.16c0.11,0.07,0.19,0.14,0.25,0.23
					s0.09,0.18,0.09,0.29c0,0.12-0.04,0.21-0.11,0.28s-0.16,0.1-0.27,0.1c-0.1,0-0.2-0.03-0.28-0.09c-0.08-0.06-0.12-0.14-0.12-0.25
					c0-0.1,0.03-0.19,0.09-0.25c0.06-0.06,0.13-0.1,0.21-0.12c-0.05-0.08-0.13-0.15-0.25-0.2s-0.25-0.08-0.39-0.08
					c-0.12,0-0.24,0.03-0.36,0.08s-0.23,0.14-0.33,0.27s-0.18,0.29-0.24,0.51s-0.09,0.48-0.09,0.8c0,0.4,0.05,0.71,0.14,0.95
					c0.1,0.23,0.22,0.4,0.38,0.5c0.15,0.1,0.33,0.15,0.51,0.15c0.12,0,0.25-0.02,0.38-0.07s0.25-0.12,0.36-0.22
					c0.11-0.1,0.21-0.24,0.29-0.41l0.14,0.05c-0.05,0.14-0.13,0.29-0.24,0.44s-0.25,0.27-0.43,0.36c-0.18,0.09-0.39,0.14-0.65,0.14
					c-0.3,0-0.56-0.07-0.8-0.22c-0.24-0.14-0.43-0.35-0.57-0.62c-0.14-0.27-0.21-0.59-0.21-0.96s0.07-0.69,0.21-0.98
					c0.14-0.28,0.34-0.5,0.59-0.66S132.8,134.38,133.13,134.38z"/>
				<path class="st12" d="M136.28,133.35v1.13h1.06v0.14h-1.06v2.61c0,0.21,0.04,0.36,0.12,0.45c0.08,0.08,0.19,0.13,0.34,0.13
					s0.27-0.05,0.37-0.17s0.2-0.3,0.27-0.56l0.14,0.03c-0.05,0.26-0.14,0.48-0.28,0.66c-0.14,0.18-0.36,0.27-0.65,0.27
					c-0.16,0-0.3-0.02-0.4-0.06s-0.2-0.09-0.28-0.17c-0.1-0.1-0.18-0.23-0.22-0.37c-0.04-0.14-0.06-0.33-0.06-0.57v-2.26h-0.69
					v-0.14h0.69v-1.03c0.12,0,0.23-0.01,0.34-0.03C136.08,133.4,136.19,133.38,136.28,133.35z"/>
				<path class="st12" d="M139.25,134.38c0.19,0,0.35,0.03,0.49,0.09c0.13,0.06,0.23,0.11,0.29,0.16c0.16,0.12,0.25,0.04,0.29-0.24
					h0.16c-0.01,0.13-0.02,0.28-0.02,0.45c0,0.17-0.01,0.41-0.01,0.7h-0.16c-0.03-0.17-0.08-0.33-0.15-0.49
					c-0.07-0.16-0.17-0.29-0.3-0.39c-0.13-0.1-0.31-0.15-0.52-0.15c-0.17,0-0.31,0.04-0.42,0.13c-0.11,0.09-0.17,0.22-0.17,0.39
					c0,0.14,0.04,0.25,0.13,0.35c0.09,0.1,0.2,0.19,0.34,0.27c0.14,0.08,0.29,0.17,0.45,0.27c0.18,0.11,0.35,0.22,0.49,0.33
					c0.15,0.11,0.27,0.24,0.35,0.37s0.13,0.29,0.13,0.48c0,0.21-0.06,0.38-0.17,0.52c-0.11,0.14-0.26,0.25-0.45,0.32
					s-0.39,0.11-0.6,0.11c-0.1,0-0.2-0.01-0.3-0.02c-0.09-0.02-0.18-0.04-0.27-0.07c-0.05-0.02-0.1-0.05-0.15-0.08
					c-0.05-0.03-0.1-0.07-0.15-0.1c-0.05-0.04-0.09-0.03-0.13,0s-0.07,0.11-0.09,0.23h-0.16c0.01-0.14,0.02-0.32,0.02-0.53
					c0-0.21,0.01-0.48,0.01-0.82h0.17c0.03,0.25,0.08,0.47,0.14,0.66c0.06,0.19,0.16,0.34,0.29,0.44c0.13,0.11,0.32,0.16,0.56,0.16
					c0.1,0,0.19-0.02,0.29-0.06c0.1-0.04,0.18-0.11,0.25-0.2c0.07-0.09,0.1-0.22,0.1-0.38c0-0.2-0.08-0.36-0.23-0.49
					c-0.15-0.13-0.35-0.26-0.58-0.4c-0.17-0.1-0.33-0.21-0.48-0.31s-0.27-0.22-0.37-0.35c-0.09-0.13-0.14-0.29-0.14-0.47
					c0-0.2,0.05-0.37,0.15-0.5c0.1-0.13,0.23-0.22,0.39-0.28S139.06,134.38,139.25,134.38z"/>
			</g>
		</g>
	</g>
</g>
</svg>
