<?xml version="1.0" encoding="UTF-8" standalone="no"?>
<!-- Created with Inkscape (http://www.inkscape.org/) -->

<svg
   version="1.1"
   id="svg2"
   width="793.70135"
   height="1122.52"
   viewBox="0 0 793.70135 1122.52"
   sodipodi:docname="Logo For Raihan vai.ai"
   xmlns:inkscape="http://www.inkscape.org/namespaces/inkscape"
   xmlns:sodipodi="http://sodipodi.sourceforge.net/DTD/sodipodi-0.dtd"
   xmlns="http://www.w3.org/2000/svg"
   xmlns:svg="http://www.w3.org/2000/svg">
  <defs
     id="defs6">
    <clipPath
       clipPathUnits="userSpaceOnUse"
       id="clipPath16">
      <path
         d="M 0,841.89 H 595.276 V 0 H 0 Z"
         id="path14" />
    </clipPath>
  </defs>
  <sodipodi:namedview
     id="namedview4"
     pagecolor="#ffffff"
     bordercolor="#000000"
     borderopacity="0.25"
     inkscape:showpageshadow="2"
     inkscape:pageopacity="0.0"
     inkscape:pagecheckerboard="0"
     inkscape:deskcolor="#d1d1d1" />
  <g
     id="g8"
     inkscape:groupmode="layer"
     inkscape:label="Logo For Raihan vai"
     transform="matrix(1.3333333,0,0,-1.3333333,0,1122.52)">
    <g
       id="g10">
      <g
         id="g12"
         clip-path="url(#clipPath16)">
        <g
           id="g18"
           transform="translate(296.6912,339.3404)">
          <path
             d="m 0,0 v 0 c -51.045,0 -92.426,41.38 -92.426,92.425 v 136.852 c 0,51.045 41.381,92.425 92.426,92.425 v 0 c 51.045,0 92.425,-41.38 92.425,-92.425 V 92.425 C 92.425,41.38 51.045,0 0,0 Z"
             style="fill:none;stroke:#17ab61;stroke-width:3;stroke-linecap:butt;stroke-linejoin:miter;stroke-miterlimit:10;stroke-dasharray:none;stroke-opacity:1"
             id="path20" />
        </g>
        <g
           id="g22"
           transform="translate(231.2655,455.6383)">
          <path
             d="m 0,0 c -0.062,-0.308 -0.152,-0.786 -0.237,-1.372 -0.81,-5.591 0.843,-11.617 0.843,-11.617 1.143,-4.507 2.336,-11.828 3.734,-22.181 0.346,-3.949 0.304,-7.289 0.16,-9.83 -0.254,-4.501 -0.852,-6.935 -1.19,-8.154 -0.332,-1.2 -0.681,-2.187 -0.948,-2.889 -0.197,-0.542 -0.501,-1.307 -0.947,-2.187 -0.744,-1.464 -1.514,-2.52 -2.245,-3.461 -2.263,-2.915 -4.987,-5.805 -5.872,-6.735 0,0 -7.915,4.086 -9.192,9.192 0,0 -0.568,0.966 -1.307,2.557 -1.475,3.178 -3.629,8.85 -3.288,14.294 0,0 0.766,21.957 5.872,27.83 1.304,2.994 2.424,5.385 3.191,6.989 1.313,2.742 1.949,3.917 2.937,6.16 1.135,2.578 1.921,4.72 2.393,6.08 0.293,0.771 0.565,1.607 0.798,2.505 0.89,3.429 0.888,6.524 0.638,8.904 0,0 2.594,0.599 4.477,-0.948 C 1.245,13.964 1.504,11.663 1.73,10.065 1.766,9.808 1.789,9.591 1.803,9.439 1.818,9.319 1.84,9.137 1.862,8.914 1.975,7.796 2.002,6.724 1.979,6.191 1.897,4.289 0.881,3.201 0.25,0.952 0.138,0.552 0.054,0.22 0,0 Z"
             style="fill:none;stroke:#06b663;stroke-width:3;stroke-linecap:butt;stroke-linejoin:miter;stroke-miterlimit:10;stroke-dasharray:none;stroke-opacity:1"
             id="path24" />
        </g>
        <g
           id="g26"
           transform="translate(230.9783,453.7234)">
          <path
             d="m 0,0 c -1.105,-0.894 -2.353,-2.139 -3.415,-3.83 -3.525,-5.613 -2.263,-11.786 -1.851,-13.5 0.386,-2.213 0.8,-4.458 1.245,-6.734 0.628,-3.218 1.29,-6.357 1.978,-9.415 0.456,-1.702 0.882,-3.95 0.926,-6.606 0.053,-3.245 -0.483,-5.941 -1.021,-7.851 -0.28,-1.03 -0.761,-2.187 -1.596,-3.287 -3.38,-4.459 -9.646,-4.168 -10.468,-4.117 -0.787,0.191 -1.575,0.383 -2.362,0.574"
             style="fill:none;stroke:#06b663;stroke-width:3;stroke-linecap:butt;stroke-linejoin:miter;stroke-miterlimit:10;stroke-dasharray:none;stroke-opacity:1"
             id="path28" />
        </g>
        <g
           id="g30"
           transform="translate(223.7974,386.4149)">
          <path
             d="m 0,0 c -0.72,-0.971 -1.833,-2.264 -3.447,-3.447 -8.456,-6.198 -20.546,-1.971 -23.346,-0.973 -3.868,1.379 -7.273,3.3 -13.707,8.346 -5.785,4.536 -13.593,11.265 -22.053,20.617 0,0 -2.809,3.829 3.574,5.361 -5.478,4.105 -11.699,9.392 -18,16.085 -5.752,6.111 -10.323,12.068 -13.915,17.362 -0.203,0.475 -0.639,1.681 -0.255,3.064 0,0 0.242,0.869 0.894,1.659 1.251,1.517 4.644,2.302 8.808,1.915 0,0 32.17,-2.042 56.681,-41.361 0.483,-0.775 2.135,-2.903 5.011,-4.341 2.496,-1.248 4.917,-1.419 6.415,-1.404"
             style="fill:none;stroke:#06b663;stroke-width:3;stroke-linecap:butt;stroke-linejoin:miter;stroke-miterlimit:10;stroke-dasharray:none;stroke-opacity:1"
             id="path32" />
        </g>
        <g
           id="g34"
           transform="translate(133.9251,454.4255)">
          <path
             d="M 0,0 C 0,0 44.234,-33.702 48.638,-38.489"
             style="fill:none;stroke:#06b663;stroke-width:3;stroke-linecap:butt;stroke-linejoin:miter;stroke-miterlimit:10;stroke-dasharray:none;stroke-opacity:1"
             id="path36" />
        </g>
        <g
           id="g38"
           transform="translate(164.8187,416.3192)">
          <path
             d="m 0,0 c 5.662,0.114 12.005,-0.058 18.894,-0.734 6.321,-0.62 12.1,-1.566 17.266,-2.649"
             style="fill:none;stroke:#06b663;stroke-width:3;stroke-linecap:butt;stroke-linejoin:miter;stroke-miterlimit:10;stroke-dasharray:none;stroke-opacity:1"
             id="path40" />
        </g>
        <g
           id="g42"
           transform="translate(178.3506,440.0638)">
          <path
             d="M 0,0 C 0,0 -2.298,40.404 2.681,42.894 6.916,40.012 16.788,32.447 22.462,18.664 26.629,8.54 26.709,-0.511 26.378,-5.505 c -0.419,-3.755 -0.66,-8.113 -0.479,-12.95 0.153,-4.096 0.581,-7.813 1.125,-11.082"
             style="fill:none;stroke:#06b663;stroke-width:3;stroke-linecap:butt;stroke-linejoin:miter;stroke-miterlimit:10;stroke-dasharray:none;stroke-opacity:1"
             id="path44" />
        </g>
        <g
           id="g46"
           transform="translate(213.8958,434.7979)">
          <path
             d="m 0,0 c -1.37,7.577 -2.384,17.325 -1.699,28.604 0.967,15.926 4.951,28.788 8.473,37.556 0.204,0.22 0.407,0.328 0.608,0.326 1.89,-0.022 3.666,-9.824 5.328,-29.409"
             style="fill:none;stroke:#06b663;stroke-width:3;stroke-linecap:butt;stroke-linejoin:miter;stroke-miterlimit:10;stroke-dasharray:none;stroke-opacity:1"
             id="path48" />
        </g>
        <g
           id="g50"
           transform="translate(200.2762,459.8511)">
          <path
             d="m 0,0 c 2.159,-1.949 4.502,-4.296 6.862,-7.085 2.155,-2.546 3.945,-5.013 5.425,-7.277"
             style="fill:none;stroke:#06b663;stroke-width:3;stroke-linecap:butt;stroke-linejoin:miter;stroke-miterlimit:10;stroke-dasharray:none;stroke-opacity:1"
             id="path52" />
        </g>
        <g
           id="g54"
           transform="translate(176.0528,396.5957)">
          <path
             d="m 0,0 c 0,0 14.936,1.532 27.383,-4.021 0,0 6.894,-2.873 11.872,0.957"
             style="fill:none;stroke:#06b663;stroke-width:3;stroke-linecap:butt;stroke-linejoin:miter;stroke-miterlimit:10;stroke-dasharray:none;stroke-opacity:1"
             id="path56" />
        </g>
        <g
           id="g58"
           transform="translate(343.9411,495.1223)">
          <path
             d="m 0,0 c 0.826,0.396 1.703,0.888 2.595,1.504 3.265,2.254 5.179,5.085 6.253,7.083 0,0 0.722,1.067 1.691,2.843 1.936,3.546 4.858,9.916 4.981,16.246 0,0 1.17,25.472 -3.977,32.72 -1.176,3.579 -2.203,6.446 -2.911,8.37 -1.209,3.288 -1.81,4.704 -2.703,7.387 -1.027,3.084 -1.705,5.632 -2.106,7.246 -0.255,0.919 -0.481,1.91 -0.658,2.97 -0.675,4.047 -0.388,7.627 0.11,10.359 0,0 -2.834,0.922 -5.074,-0.7 -1.699,-1.231 -2.2,-3.87 -2.598,-5.699 -0.064,-0.294 -0.11,-0.542 -0.14,-0.718 -0.027,-0.137 -0.068,-0.346 -0.114,-0.601 -0.229,-1.285 -0.357,-2.522 -0.381,-3.14 -0.084,-2.209 0.948,-3.557 1.443,-6.216 0.088,-0.473 0.151,-0.864 0.191,-1.123 0.04,-0.362 0.096,-0.923 0.137,-1.608 0.388,-6.541 -2.009,-13.367 -2.009,-13.367 -3.153,-5.921 -6.539,-13.695 -8.863,-23.157 -1.346,-5.483 -2.095,-10.553 -2.489,-15.032"
             style="fill:none;stroke:#06b663;stroke-width:3;stroke-linecap:butt;stroke-linejoin:miter;stroke-miterlimit:10;stroke-dasharray:none;stroke-opacity:1"
             id="path60" />
        </g>
        <g
           id="g62"
           transform="translate(344.0432,508.0794)">
          <path
             d="m 0,0 c 3.222,-1.839 6.731,-1.946 7.364,-1.956 0.894,0.151 1.789,0.303 2.683,0.455"
             style="fill:none;stroke:#06b663;stroke-width:3;stroke-linecap:butt;stroke-linejoin:miter;stroke-miterlimit:10;stroke-dasharray:none;stroke-opacity:1"
             id="path64" />
        </g>
        <g
           id="g66"
           transform="translate(340.6866,571.412)">
          <path
             d="m 0,0 c 1.149,-1.133 2.424,-2.684 3.451,-4.734 3.409,-6.807 1.435,-13.837 0.818,-15.784 -0.634,-2.526 -1.302,-5.087 -2.007,-7.681 -0.997,-3.667 -2.023,-7.24 -3.072,-10.717 -0.787,-2.612 -1.189,-4.718 -1.64,-7.562 -0.513,-3.244 -0.7,-5.995 -0.769,-7.987"
             style="fill:none;stroke:#06b663;stroke-width:3;stroke-linecap:butt;stroke-linejoin:miter;stroke-miterlimit:10;stroke-dasharray:none;stroke-opacity:1"
             id="path68" />
        </g>
        <g
           id="g70"
           transform="translate(344.1326,494.4043)">
          <path
             d="m 0,0 c 0.09,-1.668 0.486,-3.844 1.872,-5.799 6.084,-8.58 24.619,-3.563 25.917,-3.197 4.435,1.252 8.405,3.172 16.037,8.439 6.863,4.736 16.18,11.828 26.466,21.898 0,0 3.481,4.181 -3.488,6.52 6.481,4.263 13.898,9.829 21.533,17.014 6.971,6.559 12.611,13.046 17.1,18.853 0.27,0.531 0.868,1.887 0.567,3.522 0,0 -0.189,1.027 -0.842,1.999 -1.255,1.866 -4.962,3.075 -9.636,2.997 0,0 -36.024,0.491 -66.95,-42.826 -0.378,-0.529 -2.419,-3.089 -5.981,-4.578 -2.73,-1.14 -5.36,-1.212 -7.276,-1.055"
             style="fill:none;stroke:#06b663;stroke-width:3;stroke-linecap:butt;stroke-linejoin:miter;stroke-miterlimit:10;stroke-dasharray:none;stroke-opacity:1"
             id="path72" />
        </g>
        <g
           id="g74"
           transform="translate(448.8616,563.6136)">
          <path
             d="M 0,0 C 0,0 -52.379,-35.069 -57.726,-40.217"
             style="fill:none;stroke:#06b663;stroke-width:3;stroke-linecap:butt;stroke-linejoin:miter;stroke-miterlimit:10;stroke-dasharray:none;stroke-opacity:1"
             id="path76" />
        </g>
        <g
           id="g78"
           transform="translate(410.9367,522.2655)">
          <path
             d="M 0,0 C -6.297,0.634 -13.378,0.998 -21.114,0.827 -28.212,0.67 -34.737,0.089 -40.591,-0.706"
             style="fill:none;stroke:#06b663;stroke-width:3;stroke-linecap:butt;stroke-linejoin:miter;stroke-miterlimit:10;stroke-dasharray:none;stroke-opacity:1"
             id="path80" />
        </g>
        <g
           id="g82"
           transform="translate(398.0513,550.9387)">
          <path
             d="M 0,0 C 0,0 6.283,46.544 0.966,49.866 -4.017,46.907 -15.71,39.031 -23.301,23.587 -28.876,12.243 -29.799,1.778 -29.89,-4.029 c 0.121,-4.382 -0.013,-9.445 -0.66,-15.025 -0.548,-4.726 -1.367,-8.989 -2.275,-12.723"
             style="fill:none;stroke:#06b663;stroke-width:3;stroke-linecap:butt;stroke-linejoin:miter;stroke-miterlimit:10;stroke-dasharray:none;stroke-opacity:1"
             id="path84" />
        </g>
        <g
           id="g86"
           transform="translate(357.9712,547.9996)">
          <path
             d="m 0,0 c 2.224,8.646 4.253,19.834 4.529,32.944 0.39,18.512 -2.863,33.748 -5.978,44.204 -0.207,0.272 -0.423,0.416 -0.647,0.431 -2.107,0.142 -4.989,-11.041 -8.645,-33.553"
             style="fill:none;stroke:#06b663;stroke-width:3;stroke-linecap:butt;stroke-linejoin:miter;stroke-miterlimit:10;stroke-dasharray:none;stroke-opacity:1"
             id="path88" />
        </g>
        <g
           id="g90"
           transform="translate(375.4513,575.7778)">
          <path
             d="m 0,0 c -2.584,-2.064 -5.41,-4.572 -8.296,-7.589 -2.635,-2.754 -4.857,-5.449 -6.715,-7.937"
             style="fill:none;stroke:#06b663;stroke-width:3;stroke-linecap:butt;stroke-linejoin:miter;stroke-miterlimit:10;stroke-dasharray:none;stroke-opacity:1"
             id="path92" />
        </g>
        <g
           id="g94"
           transform="translate(396.6053,500.4422)">
          <path
             d="m 0,0 c 0,0 -16.497,3.098 -30.873,-2.223 -1.45,-0.387 -4.139,-0.901 -7.43,-0.32 -3.181,0.561 -5.473,1.891 -6.702,2.728"
             style="fill:none;stroke:#06b663;stroke-width:3;stroke-linecap:butt;stroke-linejoin:miter;stroke-miterlimit:10;stroke-dasharray:none;stroke-opacity:1"
             id="path96" />
        </g>
        <g
           id="g98"
           transform="translate(310.617,517.1702)">
          <path
             d="m 0,0 h 21.814 c 6.425,0 11.633,-5.208 11.633,-11.633 v -115.755 c 0,-6.425 -5.208,-11.633 -11.633,-11.633 h -69.032 c -6.425,0 -11.633,5.208 -11.633,11.633 v 115.755 c 0,6.425 5.208,11.633 11.633,11.633 h 10.005"
             style="fill:none;stroke:#06b663;stroke-width:2.957;stroke-linecap:butt;stroke-linejoin:miter;stroke-miterlimit:10;stroke-dasharray:none;stroke-opacity:1"
             id="path100" />
        </g>
        <g
           id="g102"
           transform="translate(325.2979,588.4042)">
          <path
             d="M 0,0 C -7.676,1.302 -16.879,2.298 -27.287,2.298 -35.07,2.298 -44.309,1.741 -54.574,0 V -53.808 H 0 Z"
             style="fill:none;stroke:#06b663;stroke-width:2.942;stroke-linecap:butt;stroke-linejoin:miter;stroke-miterlimit:10;stroke-dasharray:none;stroke-opacity:1"
             id="path104" />
        </g>
        <g
           id="g106"
           transform="translate(318.7872,579.5958)">
          <path
             d="M 0,0 V -45.192"
             style="fill:none;stroke:#06b663;stroke-width:2.942;stroke-linecap:butt;stroke-linejoin:miter;stroke-miterlimit:10;stroke-dasharray:none;stroke-opacity:1"
             id="path108" />
        </g>
        <g
           id="g110"
           transform="translate(275.7021,589.5532)">
          <path
             d="m 0,0 c 0,0 1.34,13.979 -4.404,21.638 0,0 -6.319,6.511 -2.49,12.83 0,0 6.703,4.979 26.043,0 19.34,-4.979 21.83,-13.787 24.511,-33.511"
             style="fill:none;stroke:#06b663;stroke-width:2.942;stroke-linecap:butt;stroke-linejoin:miter;stroke-miterlimit:10;stroke-dasharray:none;stroke-opacity:1"
             id="path112" />
        </g>
        <g
           id="g114"
           transform="translate(273.2128,534.7872)">
          <path
             d="M 0,0 C 0,0 0.574,-9.957 -6.894,-17.043"
             style="fill:none;stroke:#06b663;stroke-width:2.942;stroke-linecap:butt;stroke-linejoin:miter;stroke-miterlimit:10;stroke-dasharray:none;stroke-opacity:1"
             id="path116" />
        </g>
        <g
           id="g118"
           transform="translate(323.5847,534.4042)">
          <path
             d="M 0,0 C 0,0 -0.574,-9.957 6.894,-17.043"
             style="fill:none;stroke:#06b663;stroke-width:2.942;stroke-linecap:butt;stroke-linejoin:miter;stroke-miterlimit:10;stroke-dasharray:none;stroke-opacity:1"
             id="path120" />
        </g>
        <g
           id="g122"
           transform="translate(262.0638,449.6383)">
          <path
             d="M 0,0 H 69.319"
             style="fill:none;stroke:#06b663;stroke-width:3;stroke-linecap:butt;stroke-linejoin:miter;stroke-miterlimit:10;stroke-dasharray:none;stroke-opacity:1"
             id="path124" />
        </g>
        <g
           id="g126"
           transform="translate(262.0638,432.7872)">
          <path
             d="M 0,0 H 69.319"
             style="fill:none;stroke:#06b663;stroke-width:3;stroke-linecap:butt;stroke-linejoin:miter;stroke-miterlimit:10;stroke-dasharray:none;stroke-opacity:1"
             id="path128" />
        </g>
        <g
           id="g130"
           transform="translate(217.3081,362.4468)">
          <path
             d="m 0,0 c 0,-2.961 -2.401,-5.362 -5.362,-5.362 -2.961,0 -5.361,2.401 -5.361,5.362 0,2.961 2.4,5.362 5.361,5.362 C -2.401,5.362 0,2.961 0,0 Z"
             style="fill:none;stroke:#06b663;stroke-width:2;stroke-linecap:butt;stroke-linejoin:miter;stroke-miterlimit:10;stroke-dasharray:none;stroke-opacity:1"
             id="path132" />
        </g>
        <g
           id="g134"
           transform="translate(190.1166,557.383)">
          <path
             d="m 0,0 c 0,-2.961 -2.401,-5.362 -5.362,-5.362 -2.961,0 -5.361,2.401 -5.361,5.362 0,2.961 2.4,5.362 5.361,5.362 C -2.401,5.362 0,2.961 0,0 Z"
             style="fill:none;stroke:#06b663;stroke-width:2;stroke-linecap:butt;stroke-linejoin:miter;stroke-miterlimit:10;stroke-dasharray:none;stroke-opacity:1"
             id="path136" />
        </g>
        <g
           id="g138"
           transform="translate(335.2655,617.5106)">
          <path
             d="m 0,0 c 0,-2.961 -2.401,-5.362 -5.362,-5.362 -2.961,0 -5.361,2.401 -5.361,5.362 0,2.961 2.4,5.362 5.361,5.362 C -2.401,5.362 0,2.961 0,0 Z"
             style="fill:none;stroke:#06b663;stroke-width:2;stroke-linecap:butt;stroke-linejoin:miter;stroke-miterlimit:10;stroke-dasharray:none;stroke-opacity:1"
             id="path140" />
        </g>
        <g
           id="g142"
           transform="translate(424.8826,584.9575)">
          <path
             d="m 0,0 c 0,-2.961 -2.401,-5.362 -5.362,-5.362 -2.961,0 -5.361,2.401 -5.361,5.362 0,2.961 2.4,5.362 5.361,5.362 C -2.401,5.362 0,2.961 0,0 Z"
             style="fill:none;stroke:#06b663;stroke-width:2;stroke-linecap:butt;stroke-linejoin:miter;stroke-miterlimit:10;stroke-dasharray:none;stroke-opacity:1"
             id="path144" />
        </g>
        <g
           id="g146"
           transform="translate(242.2017,534.2128)">
          <path
             d="m 0,0 v 0 c 0,7.509 -6.087,13.596 -13.596,13.596 v 0 C -6.087,13.596 0,19.683 0,27.191 v 0 C 0,19.683 6.087,13.596 13.596,13.596 v 0 C 6.087,13.596 0,7.509 0,0 Z"
             style="fill:none;stroke:#06b663;stroke-width:1.632;stroke-linecap:butt;stroke-linejoin:miter;stroke-miterlimit:10;stroke-dasharray:none;stroke-opacity:1"
             id="path148" />
        </g>
        <g
           id="g150"
           transform="translate(416.84,445.1064)">
          <path
             d="m 0,0 v 0 c 0,7.509 -6.087,13.596 -13.596,13.596 v 0 C -6.087,13.596 0,19.683 0,27.191 v 0 C 0,19.683 6.087,13.596 13.596,13.596 v 0 C 6.087,13.596 0,7.509 0,0 Z"
             style="fill:none;stroke:#06b663;stroke-width:1.632;stroke-linecap:butt;stroke-linejoin:miter;stroke-miterlimit:10;stroke-dasharray:none;stroke-opacity:1"
             id="path152" />
        </g>
        <path
           d="m 243.877,603.723 h -2.681 v 8.617 h 2.681 z"
           style="fill:#06b663;fill-opacity:1;fill-rule:nonzero;stroke:none"
           id="path154" />
        <path
           d="m 243.877,583.33 h -2.681 v 8.617 h 2.681 z"
           style="fill:#06b663;fill-opacity:1;fill-rule:nonzero;stroke:none"
           id="path156" />
        <path
           d="m 248.425,599.176 h 8.617 v -2.681 h -8.617 z"
           style="fill:#06b663;fill-opacity:1;fill-rule:nonzero;stroke:none"
           id="path158" />
        <path
           d="m 228.031,599.176 h 8.617 v -2.681 h -8.617 z"
           style="fill:#06b663;fill-opacity:1;fill-rule:nonzero;stroke:none"
           id="path160" />
        <path
           d="m 397.93,640.25 h -2.681 v 8.617 h 2.681 z"
           style="fill:#06b663;fill-opacity:1;fill-rule:nonzero;stroke:none"
           id="path162" />
        <path
           d="m 397.93,619.856 h -2.681 v 8.617 h 2.681 z"
           style="fill:#06b663;fill-opacity:1;fill-rule:nonzero;stroke:none"
           id="path164" />
        <path
           d="m 402.478,635.702 h 8.617 v -2.681 h -8.617 z"
           style="fill:#06b663;fill-opacity:1;fill-rule:nonzero;stroke:none"
           id="path166" />
        <path
           d="m 382.085,635.702 h 8.617 v -2.681 h -8.617 z"
           style="fill:#06b663;fill-opacity:1;fill-rule:nonzero;stroke:none"
           id="path168" />
        <path
           d="m 153.734,494.766 h -2.681 v 8.617 h 2.681 z"
           style="fill:#06b663;fill-opacity:1;fill-rule:nonzero;stroke:none"
           id="path170" />
        <path
           d="m 153.734,474.372 h -2.681 v 8.617 h 2.681 z"
           style="fill:#06b663;fill-opacity:1;fill-rule:nonzero;stroke:none"
           id="path172" />
        <path
           d="m 158.281,490.218 h 8.617 v -2.681 h -8.617 z"
           style="fill:#06b663;fill-opacity:1;fill-rule:nonzero;stroke:none"
           id="path174" />
        <path
           d="m 137.888,490.218 h 8.617 v -2.681 h -8.617 z"
           style="fill:#06b663;fill-opacity:1;fill-rule:nonzero;stroke:none"
           id="path176" />
        <path
           d="m 367.819,454.936 h -2.681 v 8.617 h 2.681 z"
           style="fill:#06b663;fill-opacity:1;fill-rule:nonzero;stroke:none"
           id="path178" />
        <path
           d="m 367.819,434.543 h -2.681 v 8.617 h 2.681 z"
           style="fill:#06b663;fill-opacity:1;fill-rule:nonzero;stroke:none"
           id="path180" />
        <path
           d="m 372.367,450.388 h 8.617 v -2.681 h -8.617 z"
           style="fill:#06b663;fill-opacity:1;fill-rule:nonzero;stroke:none"
           id="path182" />
        <path
           d="m 351.973,450.388 h 8.617 v -2.681 h -8.617 z"
           style="fill:#06b663;fill-opacity:1;fill-rule:nonzero;stroke:none"
           id="path184" />
      </g>
    </g>
    <g
       aria-label="N"
       transform="matrix(0.07055839,0.99750765,0.99750765,-0.07055839,147.0967,524.6187)"
       id="text188"
       style="font-size:32.5999px;font-family:'Copperplate Gothic Light';-inkscape-font-specification:CopperplateGothic-Light;fill:#04bc5b">
      <path
         d="M 3.1995018,-23.765454 H 7.529176 L 18.066839,-3.8839724 V -23.765454 h 3.119912 V 0 H 16.857077 L 6.3194141,-19.881482 V 0 H 3.1995018 Z"
         id="path278" />
    </g>
    <g
       aria-label="A"
       transform="matrix(0.21337449,0.97697048,0.97697048,-0.21337449,149.3164,553.1475)"
       id="text192"
       style="font-size:32.6px;font-family:'Copperplate Gothic Light';-inkscape-font-specification:CopperplateGothic-Light;fill:#04bc5b">
      <path
         d="M 11.142578,-20.597851 6.7810544,-8.7708004 H 15.520019 Z M 9.3279293,-23.765526 H 12.973144 L 22.030468,0 H 18.687694 L 16.522851,-6.0965817 H 5.8100583 L 3.6452147,0 H 0.25468749 Z"
         id="path281" />
    </g>
    <g
       aria-label="T"
       transform="matrix(0.32486492,0.94576042,0.94576042,-0.32486492,154.0762,575.0566)"
       id="text196"
       style="font-size:32.6px;font-family:'Copperplate Gothic Light';-inkscape-font-specification:CopperplateGothic-Light;fill:#04bc5b">
      <path
         d="M -0.09550781,-23.765526 H 20.008886 v 2.706054 H 11.572363 V 0 H 8.3410152 v -21.059472 h -8.43652301 z"
         id="path284" />
    </g>
    <g
       aria-label="U"
       transform="matrix(0.4492664,0.89339784,0.89339784,-0.4492664,161.2354,596.1978)"
       id="text200"
       style="font-size:32.6px;font-family:'Copperplate Gothic Light';-inkscape-font-specification:CopperplateGothic-Light;fill:#04bc5b">
      <path
         d="m 2.8333983,-23.765526 h 3.2313475 v 14.4375967 q 0,3.8203124 1.3848632,5.507617 1.3848632,1.6713866 4.488867,1.6713866 3.088086,0 4.472949,-1.6713866 1.384863,-1.6873046 1.384863,-5.507617 V -23.765526 h 3.231348 v 14.8355459 q 0,4.6480467 -2.308106,7.0198239 -2.292187,2.37177727 -6.781054,2.37177727 -4.5047849,0 -6.8128903,-2.37177727 -2.2921874,-2.3717772 -2.2921874,-7.0198239 z"
         id="path287" />
    </g>
    <g
       aria-label="R"
       transform="matrix(0.57541978,0.81785823,0.81785823,-0.57541978,173.1582,619.7603)"
       id="text204"
       style="font-size:32.6px;font-family:'Copperplate Gothic Light';-inkscape-font-specification:CopperplateGothic-Light;fill:#04bc5b">
      <path
         d="m 14.469433,-11.142578 q 1.034668,0.350196 2.005664,1.4962894 0.986914,1.1460937 1.973828,3.1517577 L 21.712108,0 H 18.257909 L 15.217577,-6.0965817 Q 14.039648,-8.4842769 12.92539,-9.2642574 11.82705,-10.044238 9.9168941,-10.044238 H 6.4149411 V 0 H 3.1995116 v -23.765526 h 7.2585934 q 4.075,0 6.080664,1.703222 2.005664,1.703223 2.005664,5.141504 0,2.244433 -1.050586,3.724805 -1.034668,1.480371 -3.024414,2.053417 z m -8.0544919,-9.980566 v 8.436524 h 4.0431639 q 2.324023,0 3.501953,-1.066504 1.193848,-1.082422 1.193848,-3.167676 0,-2.085254 -1.193848,-3.13584 -1.17793,-1.066504 -3.501953,-1.066504 z"
         id="path290" />
    </g>
    <g
       aria-label="A"
       transform="matrix(0.68817114,0.7255484,0.7255484,-0.68817114,188.0127,640.7388)"
       id="text208"
       style="font-size:32.6px;font-family:'Copperplate Gothic Light';-inkscape-font-specification:CopperplateGothic-Light;fill:#04bc5b">
      <path
         d="M 11.142578,-20.597851 6.7810544,-8.7708004 H 15.520019 Z M 9.3279293,-23.765526 H 12.973144 L 22.030468,0 H 18.687694 L 16.522851,-6.0965817 H 5.8100583 L 3.6452147,0 H 0.25468749 Z"
         id="path293" />
    </g>
    <g
       aria-label="L"
       transform="matrix(0.78375464,0.62107058,0.62107058,-0.78375464,205.0928,658.5918)"
       id="text212"
       style="font-size:32.6px;font-family:'Copperplate Gothic Light';-inkscape-font-specification:CopperplateGothic-Light;fill:#04bc5b">
      <path
         d="M 3.1995116,-23.765526 H 6.4149411 V -2.7060546 H 17.987304 V 0 H 3.1995116 Z"
         id="path296" />
    </g>
    <g
       aria-label="B"
       transform="matrix(0.89550312,0.44505524,0.44505524,-0.89550312,230.6631,677.79)"
       id="text216"
       style="font-size:32.6px;font-family:'Copperplate Gothic Light';-inkscape-font-specification:CopperplateGothic-Light;fill:#04bc5b">
      <path
         d="m 6.4149411,-11.349511 v 8.7071283 h 5.1574219 q 2.594629,0 3.83623,-1.0665038 1.25752,-1.0824219 1.25752,-3.2950194 0,-2.2285155 -1.25752,-3.2791011 -1.241601,-1.066504 -3.83623,-1.066504 z m 0,-9.773633 v 7.163086 h 4.7594729 q 2.355859,0 3.501953,-0.875488 1.162011,-0.891406 1.162011,-2.706055 0,-1.79873 -1.162011,-2.690136 -1.146094,-0.891407 -3.501953,-0.891407 z m -3.2154295,-2.642382 h 8.2136714 q 3.677051,0 5.666797,1.528125 1.989746,1.528125 1.989746,4.345605 0,2.180762 -1.01875,3.470117 -1.01875,1.289355 -2.992578,1.607715 2.371777,0.509375 3.67705,2.133007 1.321192,1.6077152 1.321192,4.0272464 0,3.1835936 -2.164844,4.9186521 Q 15.726952,0 11.731542,0 H 3.1995116 Z"
         id="path299" />
    </g>
    <g
       aria-label="E"
       transform="matrix(0.95530382,0.29562581,0.29562581,-0.95530382,253.958,689.2378)"
       id="text220"
       style="font-size:32.6px;font-family:'Copperplate Gothic Light';-inkscape-font-specification:CopperplateGothic-Light;fill:#04bc5b">
      <path
         d="M 3.1995116,-23.765526 H 18.226073 v 2.706054 H 6.4149411 v 7.035742 H 17.732616 v 2.706055 H 6.4149411 v 8.6116204 H 18.512597 V 0 H 3.1995116 Z"
         id="path302" />
    </g>
    <g
       aria-label="A"
       transform="matrix(0.99010113,0.14035581,0.14035581,-0.99010113,276.9326,696.3252)"
       id="text224"
       style="font-size:32.6px;font-family:'Copperplate Gothic Light';-inkscape-font-specification:CopperplateGothic-Light;fill:#04bc5b">
      <path
         d="M 11.142578,-20.597851 6.7810544,-8.7708004 H 15.520019 Z M 9.3279293,-23.765526 H 12.973144 L 22.030468,0 H 18.687694 L 16.522851,-6.0965817 H 5.8100583 L 3.6452147,0 H 0.25468749 Z"
         id="path305" />
    </g>
    <g
       aria-label="U"
       transform="matrix(0.9998371,-0.01804907,-0.01804907,-0.9998371,300.2812,699.7334)"
       id="text228"
       style="font-size:32.6px;font-family:'Copperplate Gothic Light';-inkscape-font-specification:CopperplateGothic-Light;fill:#04bc5b">
      <path
         d="m 2.8333983,-23.765526 h 3.2313475 v 14.4375967 q 0,3.8203124 1.3848632,5.507617 1.3848632,1.6713866 4.488867,1.6713866 3.088086,0 4.472949,-1.6713866 1.384863,-1.6873046 1.384863,-5.507617 V -23.765526 h 3.231348 v 14.8355459 q 0,4.6480467 -2.308106,7.0198239 -2.292187,2.37177727 -6.781054,2.37177727 -4.5047849,0 -6.8128903,-2.37177727 -2.2921874,-2.3717772 -2.2921874,-7.0198239 z"
         id="path308" />
    </g>
    <g
       aria-label="T"
       transform="matrix(0.98445267,-0.17565007,-0.17565007,-0.98445267,326.6152,699.0508)"
       id="text232"
       style="font-size:32.6px;font-family:'Copperplate Gothic Light';-inkscape-font-specification:CopperplateGothic-Light;fill:#04bc5b">
      <path
         d="M -0.09550781,-23.765526 H 20.008886 v 2.706054 H 11.572363 V 0 H 8.3410152 v -21.059472 h -8.43652301 z"
         id="path311" />
    </g>
    <g
       aria-label="Y"
       transform="matrix(0.94541512,-0.32586845,-0.32586845,-0.94541512,350.1592,694.6465)"
       id="text236"
       style="font-size:32.6px;font-family:'Copperplate Gothic Light';-inkscape-font-specification:CopperplateGothic-Light;fill:#04bc5b">
      <path
         d="M -0.06367187,-23.765526 H 3.3905272 l 6.5900387,9.773632 6.5422851,-9.773632 h 3.454199 l -8.404687,12.447851 V 0 H 8.3410152 v -11.317675 z"
         id="path314" />
    </g>
    <g
       aria-label="S"
       transform="matrix(0.85746992,-0.5145341,-0.5145341,-0.85746992,379.2354,683.6865)"
       id="text240"
       style="font-size:32.6px;font-family:'Copperplate Gothic Light';-inkscape-font-specification:CopperplateGothic-Light;fill:#04bc5b">
      <path
         d="m 17.446093,-22.985546 v 3.13584 q -1.830566,-0.875488 -3.454199,-1.305273 -1.623633,-0.429786 -3.13584,-0.429786 -2.6264645,0 -4.0590817,1.01875 -1.4166991,1.01875 -1.4166991,2.897071 0,1.575878 0.9391601,2.387695 0.9550781,0.795898 3.5974608,1.289355 l 1.9419919,0.397949 q 3.597461,0.684473 5.300684,2.419531 1.71914,1.719141 1.71914,4.6162112 0,3.454199 -2.324023,5.2370115 -2.308106,1.78281237 -6.7810546,1.78281237 -1.6873047,0 -3.5974608,-0.38203123 Q 4.2819334,-0.30244139 2.2444335,-1.0505859 v -3.3109373 q 1.9579101,1.0983398 3.8362303,1.6554686 1.8783202,0.5571289 3.6929686,0.5571289 2.7538086,0 4.2500976,-1.0824218 1.496289,-1.0824218 1.496289,-3.0880858 0,-1.7509765 -1.082422,-2.7378905 -1.066504,-0.9869142 -3.517871,-1.4803712 l -1.95791,-0.382031 q -3.5974608,-0.716309 -5.2051756,-2.244434 -1.6077147,-1.528124 -1.6077147,-4.250097 0,-3.151758 2.2125975,-4.966406 2.2285156,-1.814648 6.1284178,-1.814648 1.671387,0 3.406445,0.302441 1.735059,0.302441 3.549707,0.907324 z"
         id="path317" />
    </g>
    <g
       aria-label="K"
       transform="matrix(0.76876762,-0.63952823,-0.63952823,-0.76876762,400.6602,670.7563)"
       id="text244"
       style="font-size:32.6px;font-family:'Copperplate Gothic Light';-inkscape-font-specification:CopperplateGothic-Light;fill:#04bc5b">
      <path
         d="m 3.1995116,-23.765526 h 3.2154295 v 10.044238 L 17.07998,-23.765526 h 4.138671 L 9.4234371,-12.68662 22.062304,0 h -4.23418 L 6.4149411,-11.445019 V 0 H 3.1995116 Z"
         id="path320" />
    </g>
    <g
       aria-label="I"
       transform="matrix(0.69730045,-0.71677897,-0.71677897,-0.69730045,419.6904,654.3516)"
       id="text248"
       style="font-size:32.6px;font-family:'Copperplate Gothic Light';-inkscape-font-specification:CopperplateGothic-Light;fill:#04bc5b">
      <path
         d="M 3.1995116,-23.765526 H 6.4149411 V 0 H 3.1995116 Z"
         id="path323" />
    </g>
    <g
       aria-label="N"
       transform="matrix(0.61302427,-0.79006407,-0.79006407,-0.61302427,427.1055,647.3823)"
       id="text252"
       style="font-size:32.6px;font-family:'Copperplate Gothic Light';-inkscape-font-specification:CopperplateGothic-Light;fill:#04bc5b">
      <path
         d="M 3.1995116,-23.765526 H 7.5291989 L 18.066894,-3.8839842 V -23.765526 h 3.119921 V 0 H 16.857128 L 6.3194333,-19.881542 V 0 H 3.1995116 Z"
         id="path326" />
    </g>
    <g
       aria-label="C"
       transform="matrix(0.48004277,-0.87724508,-0.87724508,-0.48004277,444.1885,625.2964)"
       id="text256"
       style="font-size:32.6px;font-family:'Copperplate Gothic Light';-inkscape-font-specification:CopperplateGothic-Light;fill:#04bc5b">
      <path
         d="m 20.9958,-21.93496 v 3.390527 q -1.623633,-1.512207 -3.470117,-2.260351 -1.830567,-0.748145 -3.899902,-0.748145 -4.0750002,0 -6.2398438,2.499121 -2.1648437,2.483203 -2.1648437,7.194922 0,4.6958004 2.1648437,7.1949214 2.1648436,2.483203 6.2398438,2.483203 2.069335,0 3.899902,-0.7481445 1.846484,-0.7481445 3.470117,-2.2603515 v 3.3586913 q -1.687305,1.14609368 -3.581543,1.71914052 -1.87832,0.57304685 -3.979492,0.57304685 -5.3961912,0 -8.5001949,-3.29501937 -3.1040038,-3.3109373 -3.1040038,-9.0254877 0,-5.730469 3.1040038,-9.025488 3.1040037,-3.310937 8.5001949,-3.310937 2.133008,0 4.011328,0.573046 1.894238,0.557129 3.549707,1.687305 z"
         id="path329" />
    </g>
    <g
       aria-label="A"
       transform="matrix(0.34753064,-0.93766863,-0.93766863,-0.34753064,457.4854,600.6567)"
       id="text260"
       style="font-size:32.6px;font-family:'Copperplate Gothic Light';-inkscape-font-specification:CopperplateGothic-Light;fill:#04bc5b">
      <path
         d="M 11.142578,-20.597851 6.7810544,-8.7708004 H 15.520019 Z M 9.3279293,-23.765526 H 12.973144 L 22.030468,0 H 18.687694 L 16.522851,-6.0965817 H 5.8100583 L 3.6452147,0 H 0.25468749 Z"
         id="path332" />
    </g>
    <g
       aria-label="R"
       transform="matrix(0.21534973,-0.97653699,-0.97653699,-0.21534973,466.0557,577.4844)"
       id="text264"
       style="font-size:32.6px;font-family:'Copperplate Gothic Light';-inkscape-font-specification:CopperplateGothic-Light;fill:#04bc5b">
      <path
         d="m 14.469433,-11.142578 q 1.034668,0.350196 2.005664,1.4962894 0.986914,1.1460937 1.973828,3.1517577 L 21.712108,0 H 18.257909 L 15.217577,-6.0965817 Q 14.039648,-8.4842769 12.92539,-9.2642574 11.82705,-10.044238 9.9168941,-10.044238 H 6.4149411 V 0 H 3.1995116 v -23.765526 h 7.2585934 q 4.075,0 6.080664,1.703222 2.005664,1.703223 2.005664,5.141504 0,2.244433 -1.050586,3.724805 -1.034668,1.480371 -3.024414,2.053417 z m -8.0544919,-9.980566 v 8.436524 h 4.0431639 q 2.324023,0 3.501953,-1.066504 1.193848,-1.082422 1.193848,-3.167676 0,-2.085254 -1.193848,-3.13584 -1.17793,-1.066504 -3.501953,-1.066504 z"
         id="path335" />
    </g>
    <g
       aria-label="E"
       transform="matrix(0.08286498,-0.99656078,-0.99656078,-0.08286498,471.5,552.2988)"
       id="text268"
       style="font-size:32.6px;font-family:'Copperplate Gothic Light';-inkscape-font-specification:CopperplateGothic-Light;fill:#04bc5b">
      <path
         d="M 3.1995116,-23.765526 H 18.226073 v 2.706054 H 6.4149411 v 7.035742 H 17.732616 v 2.706055 H 6.4149411 v 8.6116204 H 18.512597 V 0 H 3.1995116 Z"
         id="path338" />
    </g>
    <g
       aria-label="Precious"
       transform="matrix(0.88268972,0,0,-1,61.8477,268.6416)"
       id="text272"
       style="font-style:italic;font-size:101.551px;font-family:'Lucida Handwriting';-inkscape-font-specification:LucidaHandwriting-Italic;fill:#00c064">
      <path
         d="m 19.982937,-65.799893 v 27.817438 h 12.594704 q 6.991548,0 10.809628,-3.619738 3.81808,-3.619738 3.81808,-10.313774 0,-6.64445 -3.81808,-10.264188 -3.81808,-3.619738 -10.809628,-3.619738 z M 9.9666755,-74.031078 H 32.577641 q 12.445948,0 18.792886,5.652742 6.396523,5.603156 6.396523,16.462369 0,10.958385 -6.396523,16.561541 -6.346938,5.603156 -18.792886,5.603156 H 19.982937 V 0 H 9.9666755 Z"
         id="path341" />
      <path
         d="m 115.83255,-47.007007 q -1.53715,-0.892538 -3.37181,-1.289222 -1.78507,-0.446269 -3.96683,-0.446269 -7.73533,0 -11.900511,5.057716 -4.115593,5.008131 -4.115593,14.429366 V 0 h -9.173308 v -55.535704 h 9.173308 v 8.627868 q 2.875956,-5.057716 7.487403,-7.487403 4.611451,-2.479273 11.206311,-2.479273 0.94212,0 2.08259,0.148757 1.14047,0.09917 2.52886,0.347098 z"
         id="path343" />
      <path
         d="m 190.46035,-30.048783 v 4.462691 h -41.94929 q 0.59502,9.421235 5.65274,14.37978 5.1073,4.9089598 14.18144,4.9089598 5.25606,0 10.16502,-1.2892217 4.95854,-1.2892217 9.81792,-3.8676651 v 8.6278683 q -4.90896,2.08258894 -10.06585,3.17346885 -5.15689,1.09087995 -10.46253,1.09087995 -13.2889,0 -21.07382,-7.7353303 -7.73533,-7.7353298 -7.73533,-20.9250598 0,-13.635999 7.33865,-21.619257 7.38823,-8.032843 19.88377,-8.032843 11.20631,0 17.702,7.239476 6.54528,7.18989 6.54528,19.586253 z m -9.12372,-2.677614 q -0.0992,-7.487403 -4.21477,-11.950094 -4.066,-4.46269 -10.80962,-4.46269 -7.63616,0 -12.24761,4.313934 -4.56186,4.313934 -5.25606,12.148435 z"
         id="path345" />
      <path
         d="m 246.69752,-53.40353 v 8.528697 q -3.86767,-2.132174 -7.78492,-3.173468 -3.86766,-1.09088 -7.8345,-1.09088 -8.8758,0 -13.78476,5.652741 -4.90896,5.603156 -4.90896,15.768173 0,10.165018 4.90896,15.817759 4.90896,5.6031558 13.78476,5.6031558 3.96684,0 7.8345,-1.0412945 3.91725,-1.0908799 7.78492,-3.2230543 v 8.4295266 q -3.81808,1.78507625 -7.93368,2.67761435 -4.066,0.89253815 -8.67745,0.89253815 -12.54512,0 -19.93335,-7.8840867 -7.38823,-7.8840864 -7.38823,-21.2721584 0,-13.586413 7.43782,-21.371329 7.4874,-7.784916 20.47879,-7.784916 4.21476,0 8.23118,0.892538 4.01642,0.842953 7.78492,2.578444 z"
         id="path347" />
      <path
         d="m 269.08409,-55.535704 h 9.12372 V 0 h -9.12372 z m 0,-21.619257 h 9.12372 v 11.55341 h -9.12372 z"
         id="path349" />
      <path
         d="m 339.95806,-49.139181 q -7.33865,0 -11.603,5.751912 -4.26435,5.702327 -4.26435,15.669002 0,9.966676 4.21477,15.718588 4.26435,5.7023268 11.65258,5.7023268 7.28906,0 11.55341,-5.7519118 4.26435,-5.751913 4.26435,-15.669003 0,-9.867504 -4.26435,-15.619417 -4.26435,-5.801497 -11.55341,-5.801497 z m 0,-7.735331 q 11.90051,0 18.69371,7.735331 6.79321,7.73533 6.79321,21.420914 0,13.635999 -6.79321,21.4209148 -6.7932,7.7353303 -18.69371,7.7353303 -11.9501,0 -18.7433,-7.7353303 -6.74362,-7.7849158 -6.74362,-21.4209148 0,-13.685584 6.74362,-21.420914 6.7932,-7.735331 18.7433,-7.735331 z"
         id="path351" />
      <path
         d="m 389.90186,-21.916769 v -33.618935 h 9.12372 v 33.271837 q 0,7.884086 3.0743,11.850922 3.07429,3.917251 9.22289,3.917251 7.38823,0 11.65258,-4.710618 4.31393,-4.710618 4.31393,-12.842631 v -31.486761 h 9.12373 V 0 h -9.12373 v -8.5286975 q -3.32222,5.057716 -7.73533,7.53698849 -4.36352,2.42968711 -10.16501,2.42968711 -9.56999,0 -14.52854,-5.9502541 -4.95854,-5.950254 -4.95854,-17.404493 z m 22.95806,-34.957743 z"
         id="path353" />
      <path
         d="m 509.92618,-53.899385 v 8.627869 q -3.86766,-1.983418 -8.03284,-2.975127 -4.16518,-0.991709 -8.62787,-0.991709 -6.79321,0 -10.2146,2.082589 -3.37181,2.082589 -3.37181,6.247766 0,3.173469 2.42968,5.008131 2.42969,1.785076 9.76834,3.421396 l 3.12388,0.694196 q 9.71875,2.082589 13.78476,5.900669 4.11559,3.768494 4.11559,10.561701 0,7.7353301 -6.1486,12.2476061 -6.09901,4.512276 -16.80946,4.512276 -4.46269,0 -9.32207,-0.89253815 -4.80979,-0.84295265 -10.16502,-2.57844345 v -9.4212355 q 5.05772,2.6280288 9.96668,3.966836 4.90896,1.2892217 9.71875,1.2892217 6.44611,0 9.91709,-2.1817598 3.47098,-2.2313449 3.47098,-6.2477669 0,-3.718909 -2.52886,-5.702327 -2.47927,-1.983418 -10.95838,-3.818079 l -3.17347,-0.743782 q -8.47911,-1.785076 -12.24761,-5.4544 -3.76849,-3.718908 -3.76849,-10.165017 0,-7.834501 5.55357,-12.09885 5.55357,-4.264349 15.76817,-4.264349 5.05772,0 9.52041,0.743782 4.46269,0.743782 8.23118,2.231345 z"
         id="path355" />
    </g>
    <g
       aria-label="Health &amp; Beauty Products"
       transform="matrix(1,0,0,-0.94335078,109.9219,215.7783)"
       id="text276"
       style="font-size:27.1513px;font-family:'Playfair Display';-inkscape-font-specification:PlayfairDisplay-Regular;fill:#cc1d4b">
      <path
         d="m 2.6647517,-19.793404 h 2.6780091 v 8.113572 h 9.7309832 v -8.113572 h 2.67801 V 0 h -2.67801 V -9.4260618 H 5.3427608 V 0 H 2.6647517 Z"
         id="path358" />
      <path
         d="m 36.491666,-8.0340274 v 1.1931724 h -11.21582 q 0.159089,2.5189195 1.511351,3.8446666 1.36552,1.3124896 3.791637,1.3124896 1.405292,0 2.717782,-0.3446942 1.325747,-0.3446943 2.624979,-1.0340828 v 2.30679996 q -1.31249,0.55681378 -2.691267,0.84847814 -1.378777,0.29166436 -2.797326,0.29166436 -3.553002,0 -5.634425,-2.06816546 -2.068166,-2.0681655 -2.068166,-5.5946527 0,-3.6458045 1.962106,-5.7802575 1.975363,-2.14771 5.316246,-2.14771 2.996188,0 4.732917,1.935591 1.749986,1.922333 1.749986,5.2367006 z m -2.439375,-0.7159034 q -0.02651,-2.0018782 -1.126885,-3.1950502 -1.087112,-1.193173 -2.890128,-1.193173 -2.041651,0 -3.274596,1.1534 -1.219687,1.1534 -1.405292,3.2480807 z"
         id="path360" />
      <path
         d="m 45.445127,-7.4639561 q -2.956416,0 -4.096559,0.676131 -1.140142,0.676131 -1.140142,2.3067999 0,1.2992322 0.848478,2.0681655 0.861735,0.7556758 2.333315,0.7556758 2.028393,0 3.24808,-1.4318068 1.232945,-1.4450644 1.232945,-3.8314091 v -0.5435563 z m 4.865491,-1.0075678 V 0 h -2.439374 v -2.2537701 q -0.835221,1.35226208 -2.081423,2.00187815 -1.246202,0.63635861 -3.049219,0.63635861 -2.280285,0 -3.632547,-1.27271721 -1.339004,-1.28597465 -1.339004,-3.43368495 0,-2.505662 1.670441,-3.7783792 1.683699,-1.2727172 5.011324,-1.2727172 h 3.420428 v -0.2386345 q 0,-1.6836986 -1.113628,-2.5984646 -1.10037,-0.928023 -3.102248,-0.928023 -1.272717,0 -2.479147,0.304922 -1.20643,0.304922 -2.320058,0.914766 v -2.25377 q 1.339005,-0.517042 2.598465,-0.768934 1.25946,-0.265149 2.452632,-0.265149 3.221565,0 4.812462,1.670441 1.590896,1.670442 1.590896,5.0643541 z"
         id="path362" />
      <path
         d="m 53.385924,-20.628625 h 2.439375 V 0 h -2.439375 z"
         id="path364" />
      <path
         d="m 64.731561,-19.064243 v 4.215876 h 5.024582 v 1.895818 h -5.024582 v 8.0605422 q 0,1.8162735 0.490527,2.3333149 0.503784,0.5170414 2.028393,0.5170414 h 2.505662 V 0 H 67.250481 Q 64.42664,0 63.352784,-1.0473402 62.278929,-2.1079379 62.278929,-4.8920068 v -8.0605422 h -1.789758 v -1.895818 h 1.789758 v -4.215876 z"
         id="path366" />
      <path
         d="M 85.440475,-8.9620503 V 0 H 83.0011 v -8.8825055 q 0,-2.1079375 -0.821963,-3.1552785 -0.821963,-1.04734 -2.465889,-1.04734 -1.975364,0 -3.115506,1.25946 -1.140143,1.25946 -1.140143,3.4336849 V 0 h -2.452632 v -20.628625 h 2.452632 v 8.087058 q 0.874994,-1.339005 2.054908,-2.001879 1.193173,-0.662873 2.744297,-0.662873 2.558692,0 3.871181,1.590896 1.31249,1.577639 1.31249,4.6533727 z"
         id="path368" />
      <path
         d="m 102.20194,-10.645749 q -1.20643,1.073855 -1.7765,2.1477101 -0.556811,1.0605977 -0.556811,2.2272552 0,1.9355907 1.405291,3.2215654 1.40529,1.2859747 3.52649,1.2859747 1.25946,0 2.35983,-0.4109816 1.10037,-0.4242391 2.06816,-1.2727172 z m 1.86931,-1.484837 6.73479,6.893885 q 0.78219,-1.1799149 1.21969,-2.5189195 0.4375,-1.352262 0.51704,-2.8636135 h 2.46589 q -0.15909,1.749986 -0.84848,3.4601997 -0.68939,1.7102138 -1.92233,3.3806551 L 115.93668,0 h -3.34088 l -1.89582,-1.9488482 q -1.37877,1.17991489 -2.89013,1.76324361 -1.51135,0.57007125 -3.24808,0.57007125 -3.19505,0 -5.223439,-1.81627356 -2.028393,-1.8295309 -2.028393,-4.6798872 0,-1.6969563 0.88825,-3.181793 0.888251,-1.4980939 2.664752,-2.8105839 -0.63636,-0.835221 -0.967796,-1.657184 -0.331436,-0.83522 -0.331436,-1.630669 0,-2.14771 1.471582,-3.446942 1.47158,-1.31249 3.91095,-1.31249 1.10037,0 2.18748,0.238635 1.10037,0.238634 2.22726,0.715903 v 2.41286 q -1.1534,-0.623101 -2.20074,-0.941281 -1.04734,-0.331436 -1.94885,-0.331436 -1.39203,0 -2.26703,0.742418 -0.86173,0.729161 -0.86173,1.895818 0,0.676131 0.38446,1.36552 0.39773,0.676131 1.60416,1.922333 z"
         id="path370" />
      <path
         d="m 132.76381,-9.4525768 v 7.2518366 h 4.29542 q 2.16097,0 3.19505,-0.8882505 1.04734,-0.901508 1.04734,-2.7442965 0,-1.8560459 -1.04734,-2.731039 -1.03408,-0.8882506 -3.19505,-0.8882506 z m 0,-8.1400872 v 5.965862 h 3.96399 q 1.9621,0 2.91664,-0.729161 0.96779,-0.742418 0.96779,-2.25377 0,-1.498094 -0.96779,-2.240513 -0.95454,-0.742418 -2.91664,-0.742418 z m -2.67801,-2.20074 h 6.84086 q 3.06247,0 4.71966,1.272717 1.65718,1.272717 1.65718,3.61929 0,1.816273 -0.84848,2.890128 -0.84848,1.073855 -2.4924,1.339005 1.97536,0.424239 3.06247,1.776501 1.10037,1.3390046 1.10037,3.3541402 0,2.6514941 -1.80301,4.0965585 Q 140.51943,0 137.19181,0 h -7.10601 z"
         id="path372" />
      <path
         d="m 160.76316,-8.0340274 v 1.1931724 h -11.21582 q 0.15909,2.5189195 1.51136,3.8446666 1.36551,1.3124896 3.79163,1.3124896 1.40529,0 2.71778,-0.3446942 1.32575,-0.3446943 2.62498,-1.0340828 v 2.30679996 q -1.31249,0.55681378 -2.69126,0.84847814 -1.37878,0.29166436 -2.79733,0.29166436 -3.553,0 -5.63443,-2.06816546 -2.06816,-2.0681655 -2.06816,-5.5946527 0,-3.6458045 1.9621,-5.7802575 1.97537,-2.14771 5.31625,-2.14771 2.99619,0 4.73292,1.935591 1.74998,1.922333 1.74998,5.2367006 z m -2.43937,-0.7159034 q -0.0265,-2.0018782 -1.12689,-3.1950502 -1.08711,-1.193173 -2.89012,-1.193173 -2.04166,0 -3.2746,1.1534 -1.21969,1.1534 -1.40529,3.2480807 z"
         id="path374" />
      <path
         d="m 169.71663,-7.4639561 q -2.95642,0 -4.09656,0.676131 -1.14014,0.676131 -1.14014,2.3067999 0,1.2992322 0.84847,2.0681655 0.86174,0.7556758 2.33332,0.7556758 2.02839,0 3.24808,-1.4318068 1.23294,-1.4450644 1.23294,-3.8314091 v -0.5435563 z m 4.86549,-1.0075678 V 0 h -2.43938 v -2.2537701 q -0.83522,1.35226208 -2.08142,2.00187815 -1.2462,0.63635861 -3.04922,0.63635861 -2.28028,0 -3.63254,-1.27271721 -1.33901,-1.28597465 -1.33901,-3.43368495 0,-2.505662 1.67044,-3.7783792 1.6837,-1.2727172 5.01133,-1.2727172 h 3.42042 v -0.2386345 q 0,-1.6836986 -1.11362,-2.5984646 -1.10037,-0.928023 -3.10225,-0.928023 -1.27272,0 -2.47915,0.304922 -1.20643,0.304922 -2.32006,0.914766 v -2.25377 q 1.33901,-0.517042 2.59847,-0.768934 1.25946,-0.265149 2.45263,-0.265149 3.22156,0 4.81246,1.670441 1.5909,1.670442 1.5909,5.0643541 z"
         id="path376" />
      <path
         d="m 177.40554,-5.8598021 v -8.9885649 h 2.43937 v 8.8957626 q 0,2.1079378 0.82197,3.1685355 0.82196,1.0473402 2.46589,1.0473402 1.97536,0 3.1155,-1.2594597 1.1534,-1.2594598 1.1534,-3.433685 v -8.4184936 h 2.43938 V 0 h -2.43938 v -2.280285 q -0.88825,1.35226204 -2.06816,2.01513558 -1.16666,0.64961608 -2.71778,0.64961608 -2.5587,0 -3.88444,-1.59089656 -1.32575,-1.5908965 -1.32575,-4.6533722 z m 6.13821,-9.3465169 z"
         id="path378" />
      <path
         d="m 197.01269,-19.064243 v 4.215876 h 5.02458 v 1.895818 h -5.02458 v 8.0605422 q 0,1.8162735 0.49053,2.3333149 0.50378,0.5170414 2.02839,0.5170414 h 2.50566 V 0 h -2.50566 q -2.82384,0 -3.8977,-1.0473402 -1.07385,-1.0605977 -1.07385,-3.8446666 v -8.0605422 h -1.78976 v -1.895818 h 1.78976 v -4.215876 z"
         id="path380" />
      <path
         d="m 211.55688,1.378777 q -1.03408,2.6514942 -2.01514,3.4601999 -0.98105,0.8087057 -2.62498,0.8087057 h -1.94884 V 3.6060321 h 1.4318 q 1.00757,0 1.56438,-0.477269 0.55682,-0.4772689 1.23295,-2.25377002 l 0.4375,-1.11362756 -6.00564,-14.60973252 h 2.58521 l 4.64011,11.6135441 4.64012,-11.6135441 h 2.5852 z"
         id="path382" />
      <path
         d="m 230.23697,-17.592664 v 7.437441 h 3.3674 q 1.8693,0 2.89013,-0.967795 1.02082,-0.967795 1.02082,-2.757554 0,-1.776501 -1.02082,-2.744297 -1.02083,-0.967795 -2.89013,-0.967795 z m -2.67801,-2.20074 h 6.04541 q 3.32762,0 5.02458,1.511352 1.71021,1.498094 1.71021,4.40148 0,2.929901 -1.71021,4.4279952 -1.69696,1.4980943 -5.02458,1.4980943 h -3.3674 V 0 h -2.67801 z"
         id="path384" />
      <path
         d="m 253.10803,-12.568082 q -0.41098,-0.238635 -0.90151,-0.344695 -0.47727,-0.119317 -1.0606,-0.119317 -2.06816,0 -3.18179,1.352262 -1.10037,1.339005 -1.10037,3.8579242 V 0 h -2.45263 v -14.848367 h 2.45263 v 2.3068 q 0.76893,-1.352263 2.00188,-2.001879 1.23294,-0.662873 2.99618,-0.662873 0.2519,0 0.55682,0.03977 0.30492,0.02651 0.67613,0.0928 z"
         id="path386" />
      <path
         d="m 262.96447,-13.138154 q -1.9621,0 -3.10225,1.537867 -1.14014,1.524609 -1.14014,4.1893608 0,2.6647516 1.12689,4.2026182 1.14014,1.5246092 3.1155,1.5246092 1.94885,0 3.08899,-1.5378666 1.14015,-1.5378667 1.14015,-4.1893608 0,-2.6382368 -1.14015,-4.1761038 -1.14014,-1.551124 -3.08899,-1.551124 z m 0,-2.068165 q 3.1818,0 4.99807,2.068165 1.81627,2.068166 1.81627,5.7272278 0,3.6458045 -1.81627,5.7272274 -1.81627,2.06816546 -4.99807,2.06816546 -3.19505,0 -5.01132,-2.06816546 -1.80302,-2.0814229 -1.80302,-5.7272274 0,-3.6590618 1.80302,-5.7272278 1.81627,-2.068165 5.01132,-2.068165 z"
         id="path388" />
      <path
         d="m 283.0279,-12.594597 v -8.034028 h 2.43938 V 0 h -2.43938 v -2.2272551 q -0.76893,1.32574708 -1.94884,1.97536315 -1.16666,0.63635861 -2.81059,0.63635861 -2.69126,0 -4.38822,-2.14771026 -1.6837,-2.1477103 -1.6837,-5.6476826 0,-3.4999728 1.6837,-5.6476828 1.69696,-2.14771 4.38822,-2.14771 1.64393,0 2.81059,0.649616 1.17991,0.636359 1.94884,1.962106 z m -8.31243,5.1836708 q 0,2.6912666 1.10037,4.2291332 1.11363,1.5246091 3.04922,1.5246091 1.93559,0 3.04922,-1.5246091 1.11362,-1.5378666 1.11362,-4.2291332 0,-2.6912668 -1.11362,-4.2158758 -1.11363,-1.537867 -3.04922,-1.537867 -1.93559,0 -3.04922,1.537867 -1.10037,1.524609 -1.10037,4.2158758 z"
         id="path390" />
      <path
         d="m 289.94767,-5.8598021 v -8.9885649 h 2.43937 v 8.8957626 q 0,2.1079378 0.82197,3.1685355 0.82196,1.0473402 2.46589,1.0473402 1.97536,0 3.1155,-1.2594597 1.1534,-1.2594598 1.1534,-3.433685 v -8.4184936 h 2.43938 V 0 h -2.43938 v -2.280285 q -0.88825,1.35226204 -2.06816,2.01513558 -1.16666,0.64961608 -2.71778,0.64961608 -2.5587,0 -3.88444,-1.59089656 -1.32575,-1.5908965 -1.32575,-4.6533722 z m 6.13821,-9.3465169 z"
         id="path392" />
      <path
         d="m 317.8275,-14.278296 v 2.280285 q -1.03409,-0.570071 -2.08143,-0.848478 -1.03408,-0.291665 -2.09468,-0.291665 -2.37308,0 -3.68557,1.511352 -1.31249,1.498094 -1.31249,4.2158758 0,2.7177815 1.31249,4.2291332 1.31249,1.4980942 3.68557,1.4980942 1.0606,0 2.09468,-0.2784069 1.04734,-0.2916644 2.08143,-0.8617356 v 2.25377005 q -1.02083,0.47726895 -2.1212,0.71590343 -1.08711,0.23863448 -2.32006,0.23863448 -3.35414,0 -5.3295,-2.10793786 -1.97536,-2.1079379 -1.97536,-5.687455 0,-3.6325468 1.98862,-5.7139698 2.00188,-2.081423 5.47533,-2.081423 1.12689,0 2.20074,0.238634 1.07386,0.225377 2.08143,0.689389 z"
         id="path394" />
      <path
         d="m 323.91787,-19.064243 v 4.215876 h 5.02458 v 1.895818 h -5.02458 v 8.0605422 q 0,1.8162735 0.49053,2.3333149 0.50378,0.5170414 2.02839,0.5170414 h 2.50566 V 0 h -2.50566 q -2.82384,0 -3.8977,-1.0473402 -1.07385,-1.0605977 -1.07385,-3.8446666 v -8.0605422 h -1.78976 v -1.895818 h 1.78976 v -4.215876 z"
         id="path396" />
      <path
         d="m 341.7499,-14.410871 v 2.3068 q -1.03408,-0.530299 -2.14771,-0.795448 -1.11363,-0.26515 -2.3068,-0.26515 -1.81628,0 -2.73104,0.556814 -0.90151,0.556814 -0.90151,1.670441 0,0.848479 0.64962,1.3390051 0.64961,0.4772689 2.61172,0.9147655 l 0.83522,0.1856045 q 2.59846,0.5568138 3.68558,1.5776391 1.10037,1.0075678 1.10037,2.8238413 0,2.0681655 -1.64393,3.2745953 -1.63067,1.20642986 -4.49428,1.20642986 -1.19317,0 -2.49241,-0.23863448 -1.28597,-0.22537701 -2.71778,-0.68938849 V -3.0624758 q 1.35226,0.702646 2.66475,1.0605977 1.31249,0.3446942 2.59847,0.3446942 1.72347,0 2.65149,-0.5833287 0.92802,-0.5965862 0.92802,-1.6704413 0,-0.9943103 -0.67613,-1.5246092 -0.66287,-0.5302988 -2.9299,-1.0208252 l -0.84848,-0.1988621 q -2.26702,-0.477269 -3.27459,-1.4583218 -1.00757,-0.9943103 -1.00757,-2.7177818 0,-2.09468 1.48484,-3.234823 1.48483,-1.140142 4.21587,-1.140142 1.35227,0 2.54544,0.198862 1.19317,0.198862 2.20074,0.596586 z"
         id="path398" />
    </g>
  </g>
</svg>
